<svg width="172" height="42" viewBox="0 0 172 42" fill="none" xmlns="http://www.w3.org/2000/svg">
<g filter="url(#filter0_i_744_1472)">
<path d="M8.95857 20.5984C8.95857 27.3703 14.4728 32.8845 21.2447 32.8845H24.4129V17.5027H30.5802V39.0517H21.2447C16.3109 39.0517 11.6915 37.1411 8.18464 33.6343C4.70197 30.1516 2.76714 25.508 2.76714 20.5743C2.76714 15.6405 4.67778 11.0211 8.18464 7.51424C11.6673 4.03156 16.3109 2.09674 21.2447 2.09674H30.5802V8.26397H21.2447C14.4728 8.31234 8.95857 13.8266 8.95857 20.5984Z" fill="url(#paint0_linear_744_1472)"/>
<path d="M54.3637 12.2545V18.4218H51.9451C45.7537 18.4218 40.7474 22.4849 40.7474 27.4912V39.0518H34.5802V27.4912C34.5802 25.3629 35.0639 23.3072 36.0313 21.3965C36.9503 19.5827 38.2321 17.9381 39.8525 16.5595C43.1175 13.8024 47.3983 12.2787 51.9693 12.2787H54.3637V12.2545Z" fill="url(#paint1_linear_744_1472)"/>
<path d="M86.1767 25.6048C86.1767 33.0055 80.1545 39.0518 72.7297 39.0518H71.8107C64.41 39.0518 58.3637 33.0296 58.3637 25.6048C58.3637 18.2041 64.3858 12.1578 71.8107 12.1578H72.7297C80.1545 12.1578 86.1767 18.2041 86.1767 25.6048ZM80.0095 25.6048C80.0095 21.59 76.7444 18.3492 72.7539 18.3492H71.8348C67.8201 18.3492 64.5793 21.6142 64.5793 25.6048C64.5793 29.6195 67.8443 32.8604 71.8348 32.8604H72.7539C76.7444 32.8604 80.0095 29.6195 80.0095 25.6048Z" fill="url(#paint2_linear_744_1472)"/>
<path d="M117.99 25.6048C117.99 33.0055 111.968 39.0518 104.543 39.0518H103.624C96.223 39.0518 90.1767 33.0296 90.1767 25.6048C90.1767 18.2041 96.1988 12.1578 103.624 12.1578H104.543C111.943 12.1578 117.99 18.2041 117.99 25.6048ZM111.798 25.6048C111.798 21.59 108.533 18.3492 104.543 18.3492H103.624C99.6089 18.3492 96.3681 21.6142 96.3681 25.6048C96.3681 29.6195 99.6331 32.8604 103.624 32.8604H104.543C108.557 32.8604 111.798 29.6195 111.798 25.6048Z" fill="url(#paint3_linear_744_1472)"/>
<path d="M146.417 12.0369L137.928 21.0096L146.344 39.0518H139.524L133.357 25.8225L128.157 31.3367V38.955H121.99V2.04837H128.157V22.3398L137.928 12.0127H146.417V12.0369Z" fill="url(#paint4_linear_744_1472)"/>
<path d="M166.911 26.0885C168.29 27.6605 169.571 30.3451 167.782 34.1663L167.733 34.2631L167.685 34.3598C166.161 37.1169 163.38 38.8099 160.091 39.0275C159.873 39.0517 159.631 39.0518 159.414 39.0518C155.883 39.0518 152.4 37.3588 150.417 34.65L155.399 31.0222C156.27 32.2315 158.035 32.9813 159.704 32.8845C160.865 32.812 161.735 32.3283 162.243 31.4818C162.509 30.9013 162.485 30.6111 162.485 30.5385C162.485 30.5144 162.461 30.4176 162.292 30.1999C161.639 29.4744 160.091 28.6763 158.616 27.9266C158.422 27.8298 158.204 27.7089 158.011 27.6121L157.987 27.588C154.432 25.7015 152.327 23.5974 151.578 21.1063C151.191 19.8003 150.973 17.7204 152.303 15.326L152.352 15.2293L152.424 15.1326C154.045 12.6415 156.777 11.1662 159.922 11.0936C163.549 10.9969 167.201 12.7382 169.233 15.5195L164.251 19.1473C163.404 17.9864 161.687 17.2125 160.091 17.2608C159.003 17.285 158.18 17.672 157.672 18.3976C157.382 18.978 157.455 19.2441 157.503 19.3408C157.6 19.631 158.083 20.671 160.865 22.1463C161.058 22.243 161.252 22.3398 161.445 22.4365C163.404 23.4281 165.484 24.468 166.911 26.0885Z" fill="url(#paint5_linear_744_1472)"/>
</g>
<defs>
<filter id="filter0_i_744_1472" x="0.767143" y="0.0483704" width="170.466" height="43.0034" filterUnits="userSpaceOnUse" color-interpolation-filters="sRGB">
<feFlood flood-opacity="0" result="BackgroundImageFix"/>
<feBlend mode="normal" in="SourceGraphic" in2="BackgroundImageFix" result="shape"/>
<feColorMatrix in="SourceAlpha" type="matrix" values="0 0 0 0 0 0 0 0 0 0 0 0 0 0 0 0 0 0 127 0" result="hardAlpha"/>
<feOffset dy="2"/>
<feGaussianBlur stdDeviation="2"/>
<feComposite in2="hardAlpha" operator="arithmetic" k2="-1" k3="1"/>
<feColorMatrix type="matrix" values="0 0 0 0 0 0 0 0 0 0 0 0 0 0 0 0 0 0 0.25 0"/>
<feBlend mode="normal" in2="shape" result="effect1_innerShadow_744_1472"/>
</filter>
<linearGradient id="paint0_linear_744_1472" x1="-14.6581" y1="-27.7715" x2="-15.3208" y2="78.4768" gradientUnits="userSpaceOnUse">
<stop offset="0.247917" stop-color="#1C3857"/>
<stop offset="1" stop-color="#007AFF"/>
</linearGradient>
<linearGradient id="paint1_linear_744_1472" x1="22.1855" y1="-9.40384" x2="21.6956" y2="67.64" gradientUnits="userSpaceOnUse">
<stop offset="0.247917" stop-color="#1C3857"/>
<stop offset="1" stop-color="#007AFF"/>
</linearGradient>
<linearGradient id="paint2_linear_744_1472" x1="40.9385" y1="-9.57877" x2="40.5875" y2="67.7447" gradientUnits="userSpaceOnUse">
<stop offset="0.247917" stop-color="#1C3857"/>
<stop offset="1" stop-color="#007AFF"/>
</linearGradient>
<linearGradient id="paint3_linear_744_1472" x1="72.7515" y1="-9.57877" x2="72.4005" y2="67.7447" gradientUnits="userSpaceOnUse">
<stop offset="0.247917" stop-color="#1C3857"/>
<stop offset="1" stop-color="#007AFF"/>
</linearGradient>
<linearGradient id="paint4_linear_744_1472" x1="106.686" y1="-27.859" x2="105.929" y2="78.5272" gradientUnits="userSpaceOnUse">
<stop offset="0.247917" stop-color="#1C3857"/>
<stop offset="1" stop-color="#007AFF"/>
</linearGradient>
<linearGradient id="paint5_linear_744_1472" x1="138.628" y1="-11.51" x2="138.067" y2="68.8819" gradientUnits="userSpaceOnUse">
<stop offset="0.247917" stop-color="#1C3857"/>
<stop offset="1" stop-color="#007AFF"/>
</linearGradient>
</defs>
</svg>
