<svg width="258" height="203" viewBox="0 0 258 203" fill="none" xmlns="http://www.w3.org/2000/svg">
<g filter="url(#filter0_d_138_1022)">
<path d="M228.95 183.662H212.39V183.794H228.95V183.662Z" fill="#EBEBEB"/>
<path d="M169.61 185.1H165.265V185.233H169.61V185.1Z" fill="#EBEBEB"/>
<path d="M211.89 178.754H202.295V178.886H211.89V178.754Z" fill="#EBEBEB"/>
<path d="M51.825 179.642H30.23V179.775H51.825V179.642Z" fill="#EBEBEB"/>
<path d="M59.445 179.642H56.28V179.775H59.445V179.642Z" fill="#EBEBEB"/>
<path d="M116.575 181.874H69.735V182.007H116.575V181.874Z" fill="#EBEBEB"/>
<path d="M122.5 151.565H25.96C25.2028 151.565 24.4766 151.247 23.9412 150.68C23.4058 150.114 23.105 149.346 23.105 148.545V4.99341C23.1116 4.19709 23.4153 3.43575 23.95 2.87513C24.4847 2.3145 25.2071 1.99997 25.96 2H122.5C123.257 2 123.983 2.31816 124.519 2.88449C125.054 3.45083 125.355 4.21894 125.355 5.01985V148.545C125.355 149.346 125.054 150.114 124.519 150.68C123.983 151.247 123.257 151.565 122.5 151.565V151.565ZM25.96 2.10577C25.2363 2.10717 24.5427 2.41185 24.031 2.95309C23.5194 3.49432 23.2313 4.22799 23.23 4.99341V148.545C23.2313 149.31 23.5194 150.044 24.031 150.585C24.5427 151.126 25.2363 151.431 25.96 151.432H122.5C123.224 151.431 123.917 151.126 124.429 150.585C124.941 150.044 125.229 149.31 125.23 148.545V4.99341C125.229 4.22799 124.941 3.49432 124.429 2.95309C123.917 2.41185 123.224 2.10717 122.5 2.10577H25.96Z" fill="#EBEBEB"/>
<path d="M230.655 151.565H134.105C133.348 151.563 132.623 151.245 132.088 150.679C131.553 150.113 131.251 149.345 131.25 148.545V4.99341C131.258 4.19752 131.562 3.43698 132.096 2.87665C132.631 2.31632 133.353 2.00135 134.105 2H230.655C231.406 2.00275 232.126 2.31851 232.659 2.87884C233.191 3.43917 233.493 4.19891 233.5 4.99341V148.545C233.5 149.344 233.201 150.11 232.667 150.676C232.134 151.242 231.41 151.562 230.655 151.565V151.565ZM134.105 2.10577C133.381 2.10717 132.688 2.41185 132.176 2.95309C131.664 3.49432 131.376 4.22799 131.375 4.99341V148.545C131.376 149.31 131.664 150.044 132.176 150.585C132.688 151.126 133.381 151.431 134.105 151.432H230.655C231.379 151.431 232.072 151.126 232.584 150.585C233.096 150.044 233.384 149.31 233.385 148.545V4.99341C233.384 4.22799 233.096 3.49432 232.584 2.95309C232.072 2.41185 231.379 2.10717 230.655 2.10577H134.105Z" fill="#EBEBEB"/>
<path d="M254 175.152H4V175.285H254V175.152Z" fill="#EBEBEB"/>
<path d="M40.24 175.2H49.53L49.53 120.779H40.24L40.24 175.2Z" fill="#E6E6E6"/>
<path d="M46.99 175.2H97.115V120.779H46.99L46.99 175.2Z" fill="#F5F5F5"/>
<path d="M38.065 121.969H49.61V119.584H38.065V121.969Z" fill="#E0E0E0"/>
<path d="M46.12 121.969H98.835V119.584H46.12V121.969Z" fill="#EBEBEB"/>
<path d="M75.57 156.303C75.6847 156.304 75.7984 156.281 75.9045 156.235C76.0106 156.189 76.1071 156.121 76.1884 156.036C76.2697 155.95 76.3343 155.849 76.3783 155.737C76.4223 155.625 76.445 155.504 76.445 155.383V151.237C76.445 151.115 76.4223 150.995 76.3783 150.883C76.3343 150.771 76.2697 150.67 76.1884 150.584C76.1071 150.499 76.0106 150.431 75.9045 150.385C75.7984 150.339 75.6847 150.316 75.57 150.317V150.317C75.3393 150.317 75.118 150.414 74.9548 150.586C74.7917 150.759 74.7 150.993 74.7 151.237V155.373C74.6987 155.494 74.7202 155.615 74.7633 155.728C74.8065 155.841 74.8703 155.944 74.9513 156.03C75.0322 156.117 75.1285 156.185 75.2348 156.232C75.341 156.279 75.4549 156.303 75.57 156.303V156.303Z" fill="#E6E6E6"/>
<path d="M69.69 156.303C69.9207 156.303 70.142 156.206 70.3052 156.034C70.4683 155.861 70.56 155.627 70.56 155.383V151.237C70.56 150.993 70.4683 150.759 70.3052 150.586C70.142 150.414 69.9207 150.317 69.69 150.317V150.317C69.4593 150.317 69.238 150.414 69.0748 150.586C68.9117 150.759 68.82 150.993 68.82 151.237V155.373C68.8187 155.494 68.8402 155.615 68.8833 155.728C68.9265 155.841 68.9903 155.944 69.0713 156.03C69.1522 156.117 69.2485 156.185 69.3547 156.232C69.461 156.279 69.5749 156.303 69.69 156.303Z" fill="#E6E6E6"/>
<path d="M97.12 132.108V133.033H73.065V175.2H72.195V133.033H46.995V132.108H97.12Z" fill="#E0E0E0"/>
<path d="M196.795 98.7517H209.49L199.275 37.4767H186.58L196.795 98.7517Z" fill="#FAFAFA"/>
<path d="M189.405 98.7517H192.83L182.615 37.4767H179.19L189.405 98.7517Z" fill="#FAFAFA"/>
<path d="M152.27 99.8147H155.785L145.29 36.842H141.77L152.27 99.8147Z" fill="#FAFAFA"/>
<path d="M159.275 99.8147H165.905L155.41 36.842H148.78L159.275 99.8147Z" fill="#FAFAFA"/>
<path d="M177.03 36.5247H218.5V99.8411H177.03V36.5247ZM215.22 39.9941H180.31V96.3506H215.22V39.9941Z" fill="#E6E6E6"/>
<path d="M133.915 34.79H220.14V101.555H133.915V34.79ZM216.86 38.2594H137.195V98.0853H216.86V38.2594Z" fill="#F5F5F5"/>
<path d="M100.74 98.7517H113.435L103.22 37.4767H90.525L100.74 98.7517Z" fill="#FAFAFA"/>
<path d="M93.355 98.7517H96.775L86.56 37.4767H83.14L93.355 98.7517Z" fill="#FAFAFA"/>
<path d="M56.215 99.8147H59.73L49.235 36.842H45.715L56.215 99.8147Z" fill="#FAFAFA"/>
<path d="M63.22 99.8147H69.85L59.355 36.842H52.725L63.22 99.8147Z" fill="#FAFAFA"/>
<path d="M80.97 36.5247H122.445V99.8411H80.97V36.5247ZM119.165 39.9941H84.255V96.3506H119.165V39.9941Z" fill="#E6E6E6"/>
<path d="M37.86 34.79H124.085V101.555H37.86V34.79ZM120.805 38.2594H41.14V98.0853H120.805V38.2594Z" fill="#F5F5F5"/>
<path d="M198.81 155.452C198.973 149.152 197.975 142.879 195.87 136.984C197.57 133.657 196.965 122.091 193.505 122.477C192.24 122.614 192.685 125.719 191.665 125.412C189.575 124.788 188.785 118.838 186.415 117.96C184.915 117.4 185.915 121.953 184.705 122.329C183.495 122.704 178.885 121.8 177.93 123.736C176.975 125.671 181.37 126.047 182.045 126.56C182.72 127.073 179.67 127.861 181.12 129.088C182.57 130.315 185.75 127.3 186.09 128.284C186.43 129.268 183.09 130.399 184.115 131.922C185.14 133.446 189.83 130.632 190.33 132.06C190.83 133.488 186.37 134.345 188.125 136.539C189.36 138.079 193.045 137.835 195.17 137.507C195.31 137.481 195.415 137.46 195.505 137.433C197.448 143.288 198.297 149.487 198.005 155.685L198.81 155.452Z" fill="#E6E6E6"/>
<path d="M200.105 152.659C199.494 147.017 199.927 141.303 201.38 135.836C199.61 132.991 199.3 122.561 202.435 122.614C203.58 122.614 203.41 125.46 204.3 125.1C206.13 124.365 206.4 118.965 208.465 117.976C209.785 117.347 209.19 121.52 210.32 121.758C211.45 121.996 215.5 120.821 216.5 122.461C217.5 124.1 213.58 124.82 213 125.338C212.42 125.856 215.23 126.311 214 127.533C212.77 128.754 209.71 126.311 209.5 127.215C209.29 128.12 212.355 128.881 211.54 130.32C210.725 131.758 206.315 129.632 205.97 130.96C205.625 132.287 209.695 132.684 208.28 134.799C207.28 136.28 203.96 136.386 202.03 136.249C201.927 136.243 201.825 136.229 201.725 136.206C200.414 141.625 200.112 147.262 200.835 152.802L200.105 152.659Z" fill="#EBEBEB"/>
<path d="M198.82 152.659C198.721 148.841 199.325 145.038 200.6 141.463C199.57 139.443 199.94 132.435 202.035 132.668C202.805 132.753 202.535 134.63 203.15 134.445C204.42 134.07 204.895 130.463 206.335 129.929C207.255 129.59 206.625 132.351 207.37 132.573C208.115 132.795 210.9 132.266 211.48 133.424C212.06 134.583 209.395 134.826 208.98 135.138C208.565 135.45 210.42 135.926 209.54 136.672C208.66 137.417 206.73 135.614 206.54 136.18C206.35 136.746 208.365 137.476 207.74 138.385C207.115 139.295 204.275 137.603 203.97 138.47C203.665 139.337 206.375 139.856 205.305 141.188C204.56 142.119 202.305 141.971 201.035 141.775L200.835 141.728C199.663 145.28 199.153 149.039 199.335 152.797L198.82 152.659Z" fill="#F5F5F5"/>
<path d="M204.315 175.2H193.32L191.58 149.492H206.05L204.315 175.2Z" fill="#EBEBEB"/>
<path d="M126.59 197C180.131 197 223.535 194.32 223.535 191.013C223.535 187.707 180.131 185.026 126.59 185.026C73.0488 185.026 29.645 187.707 29.645 191.013C29.645 194.32 73.0488 197 126.59 197Z" fill="#F5F5F5"/>
<path d="M89.825 158.863H70.63V161.989H89.825V158.863Z" fill="#007AFF"/>
<path d="M71.415 160.661H89.04C89.4736 160.661 89.8895 160.843 90.1961 161.168C90.5027 161.492 90.675 161.932 90.675 162.391V192.859H69.775V162.396C69.7743 162.168 69.8163 161.942 69.8985 161.731C69.9806 161.521 70.1014 161.329 70.2538 161.168C70.4063 161.007 70.5873 160.879 70.7866 160.792C70.9859 160.705 71.1994 160.661 71.415 160.661V160.661Z" fill="#007AFF"/>
<path opacity="0.5" d="M71.415 160.661H89.04C89.4736 160.661 89.8895 160.843 90.1961 161.168C90.5027 161.492 90.675 161.932 90.675 162.391V192.859H69.775V162.396C69.7743 162.168 69.8163 161.942 69.8985 161.731C69.9806 161.521 70.1014 161.329 70.2538 161.168C70.4063 161.007 70.5873 160.879 70.7866 160.792C70.9859 160.705 71.1994 160.661 71.415 160.661V160.661Z" fill="#F7F7F7"/>
<path d="M88.87 155.018H71.58C70.5831 155.018 69.775 155.873 69.775 156.927V157.916C69.775 158.971 70.5831 159.826 71.58 159.826H88.87C89.8668 159.826 90.675 158.971 90.675 157.916V156.927C90.675 155.873 89.8668 155.018 88.87 155.018Z" fill="#007AFF"/>
<path opacity="0.7" d="M88.87 155.018H71.58C70.5831 155.018 69.775 155.873 69.775 156.927V157.916C69.775 158.971 70.5831 159.826 71.58 159.826H88.87C89.8668 159.826 90.675 158.971 90.675 157.916V156.927C90.675 155.873 89.8668 155.018 88.87 155.018Z" fill="#F7F7F7"/>
<path d="M75.815 192.864H66.045V191.426L75.815 190.463V192.864Z" fill="#007AFF"/>
<path opacity="0.7" d="M75.815 192.864H66.045V191.426L75.815 190.463V192.864Z" fill="#F7F7F7"/>
<path d="M163.275 37.2968C155.715 35.065 148.17 32.7732 140.64 30.4215C133.307 32.7591 125.973 35.0509 118.64 37.2968C111.507 35.0509 104.388 32.7591 97.285 30.4215C89.5383 32.7732 81.7783 35.065 74.005 37.2968L56.5 112.434C66.6033 110.181 76.6983 107.889 86.785 105.558C96.2283 107.892 105.683 110.184 115.15 112.434C124.817 110.191 134.483 107.899 144.15 105.558C154.02 107.903 163.902 110.195 173.795 112.434C183.045 110.181 192.285 107.889 201.515 105.558L184 30.4215C177.103 32.7591 170.195 35.0509 163.275 37.2968Z" fill="#007AFF"/>
<path opacity="0.8" d="M163.275 37.2968C155.715 35.065 148.17 32.7732 140.64 30.4215C133.307 32.7591 125.973 35.0509 118.64 37.2968C111.507 35.0509 104.388 32.7591 97.285 30.4215C89.5383 32.7732 81.7783 35.065 74.005 37.2968L56.5 112.434C66.6033 110.181 76.6983 107.889 86.785 105.558C96.2283 107.892 105.683 110.184 115.15 112.434C124.817 110.191 134.483 107.899 144.15 105.558C154.02 107.903 163.902 110.195 173.795 112.434C183.045 110.181 192.285 107.889 201.515 105.558L184 30.4215C177.103 32.7591 170.195 35.0509 163.275 37.2968Z" fill="#F7F7F7"/>
<path d="M115.345 108.07C124.885 105.828 134.417 103.536 143.94 101.195C153.677 103.54 163.423 105.831 173.18 108.07C180.89 106.173 188.595 104.234 196.295 102.253C191.455 80.1142 186.622 57.9775 181.795 35.8424C175.845 37.8204 169.88 39.7596 163.9 41.66C156.207 39.4282 148.527 37.1364 140.86 34.7847C133.4 37.1153 125.932 39.407 118.455 41.66C111.188 39.4141 103.935 37.1223 96.695 34.7847C90.075 36.7556 83.4467 38.6948 76.81 40.6023C71.97 62.7373 67.1367 84.8723 62.31 107.007C70.6867 105.096 79.055 103.157 87.415 101.19C96.705 103.52 106.015 105.814 115.345 108.07Z" fill="#007AFF"/>
<path opacity="0.4" d="M115.345 108.07C124.885 105.828 134.417 103.536 143.94 101.195C153.677 103.54 163.423 105.831 173.18 108.07C180.89 106.173 188.595 104.234 196.295 102.253C191.455 80.1142 186.622 57.9775 181.795 35.8424C175.845 37.8204 169.88 39.7596 163.9 41.66C156.207 39.4282 148.527 37.1364 140.86 34.7847C133.4 37.1153 125.932 39.407 118.455 41.66C111.188 39.4141 103.935 37.1223 96.695 34.7847C90.075 36.7556 83.4467 38.6948 76.81 40.6023C71.97 62.7373 67.1367 84.8723 62.31 107.007C70.6867 105.096 79.055 103.157 87.415 101.19C96.705 103.52 106.015 105.814 115.345 108.07Z" fill="#F7F7F7"/>
<path d="M136.965 88.2958C136.59 84.0649 136.285 80.22 134.715 77.9987C131.215 73.0855 122.84 74.1327 117.58 75.1481C116.995 74.0904 115.495 71.1446 113.85 64.0418C112.28 57.2617 105.02 53.9933 99.42 52.084C97.84 51.5552 95.885 50.8465 95.56 50.3599C95.095 48.1228 93.06 48.017 91.06 47.9218C89.455 47.8425 87.625 47.7526 86.165 46.7266C84.86 45.8063 86.36 41.4643 88.315 37.2809L86.67 37.7569C86.53 38.0795 86.385 38.4022 86.245 38.7301C83.92 44.2197 82.72 47.7209 84.67 49.0536C86.62 50.3864 88.775 50.4763 90.555 50.5662C92.335 50.6561 93.185 50.7566 93.295 51.3489C93.585 52.9355 95.44 53.6389 98.47 54.6226C103.635 56.2991 109.915 58.8536 111.5 64.8774C114.15 74.926 115.785 77.3059 116.095 77.6074L116.56 78.0622L117.205 77.9194C121.91 76.9727 129.555 75.8409 132.6 79.4637C133.795 80.8864 134.1 84.6942 134.335 88.4809C134.6 93.1932 134.44 98.5295 135.795 103.205L139.745 102.242C137.78 97.4665 137.34 92.5056 136.965 88.2958Z" fill="#007AFF"/>
<path opacity="0.2" d="M136.965 88.2958C136.59 84.0649 136.285 80.22 134.715 77.9987C131.215 73.0855 122.84 74.1327 117.58 75.1481C116.995 74.0904 115.495 71.1446 113.85 64.0418C112.28 57.2617 105.02 53.9933 99.42 52.084C97.84 51.5552 95.885 50.8465 95.56 50.3599C95.095 48.1228 93.06 48.017 91.06 47.9218C89.455 47.8425 87.625 47.7526 86.165 46.7266C84.86 45.8063 86.36 41.4643 88.315 37.2809L86.67 37.7569C86.53 38.0795 86.385 38.4022 86.245 38.7301C83.92 44.2197 82.72 47.7209 84.67 49.0536C86.62 50.3864 88.775 50.4763 90.555 50.5662C92.335 50.6561 93.185 50.7566 93.295 51.3489C93.585 52.9355 95.44 53.6389 98.47 54.6226C103.635 56.2991 109.915 58.8536 111.5 64.8774C114.15 74.926 115.785 77.3059 116.095 77.6074L116.56 78.0622L117.205 77.9194C121.91 76.9727 129.555 75.8409 132.6 79.4637C133.795 80.8864 134.1 84.6942 134.335 88.4809C134.6 93.1932 134.44 98.5295 135.795 103.205L139.745 102.242C137.78 97.4665 137.34 92.5056 136.965 88.2958Z" fill="#F7F7F7"/>
<g opacity="0.5">
<path opacity="0.5" d="M144.64 61.9792L161.275 63.4601C161.75 67.4584 161.985 69.4628 162.46 73.461L151.315 72.3398L150.89 66.9665L144.89 66.1679C144.78 64.4967 144.73 63.6558 144.64 61.9792Z" fill="#F7F7F7"/>
<path opacity="0.5" d="M144 67.7175L149.59 68.5214L150.015 74.3389L144.325 73.8735L144 67.7175Z" fill="#F7F7F7"/>
</g>
<path opacity="0.5" d="M171 50.0797C169.22 50.8254 168.325 51.1956 166.5 51.9413L167.275 57.3041C169.14 56.6853 170.065 56.3785 171.91 55.7545C171.56 53.4856 171.375 52.3485 171 50.0797Z" fill="#F7F7F7"/>
<path opacity="0.5" d="M87.68 83.7476C84.18 84.9058 82.405 85.4823 78.83 86.6352C78.245 89.9565 77.95 91.6225 77.36 94.9438C81 93.9812 82.805 93.5053 86.385 92.5427C86.9 89.0257 87.16 87.2646 87.68 83.7476Z" fill="#F7F7F7"/>
<path d="M142 59.8743C150.17 60.5795 158.337 61.2847 166.5 61.9898H166.66C173.2 60.1211 179.73 58.219 186.25 56.2833L185.75 54.0991C179.237 56.0594 172.712 57.9775 166.175 59.8532L157.27 59.0863C154.833 51.9677 152.5 44.8209 150.27 37.6459L147.77 36.8949C149.997 44.2568 152.32 51.5816 154.74 58.8695L141.635 57.7324C138.135 59.0757 136.36 59.7527 132.77 61.096H117.605C109.998 59.8267 102.395 58.5416 94.795 57.2406C97.705 50.5027 100.512 43.7209 103.215 36.8949L101.58 36.366C98.77 43.3436 95.8566 50.2683 92.84 57.1401C86.06 58.1978 79.2766 59.2362 72.49 60.2551C72.305 61.1119 72.21 61.5403 72.025 62.3706C78.935 61.3129 85.8467 60.2551 92.76 59.1974C95.405 65.9458 98.33 72.5355 101.365 79.0988L90.29 78.1574C82.6067 80.3187 74.91 82.4342 67.2 84.5039C66.91 85.8207 66.765 86.4818 66.48 87.7987C74.3766 85.7114 82.2617 83.5819 90.135 81.41L102.735 82.4677C105.015 90.6652 107.495 98.7992 110.235 106.833L112.87 107.467C110 99.3122 107.405 91.0143 105 82.6687L116.365 83.6418C125.455 86.191 134.567 88.689 143.7 91.1359C150.18 88.9323 156.645 86.6758 163.095 84.3664C165.73 88.5391 167.095 90.6229 169.885 94.7957C175.412 98.1805 180.98 101.493 186.59 104.733L190.72 103.675C184.47 100.061 178.258 96.3788 172.085 92.6273C169.585 88.9252 168.355 87.053 165.975 83.3351L169.58 82.0287C176.71 80.6643 183.838 79.2839 190.965 77.8877C190.68 76.5972 190.54 75.952 190.26 74.6616C182.967 76.1072 175.672 77.5351 168.375 78.9454C160.085 81.9741 151.775 84.9322 143.445 87.8199C138.405 86.4589 133.37 85.0786 128.34 83.6788C130.27 76.8141 132.072 69.9123 133.745 62.9735C137.075 61.7624 138.725 61.1172 142 59.8743ZM126.355 83.1182C122.62 82.0605 120.765 81.5316 117.1 80.5056L103.865 79.3579C100.78 72.8052 97.795 66.2208 95.095 59.4777C102.502 60.7329 109.908 61.9669 117.315 63.1798H131.7C130.023 69.8682 128.233 76.5144 126.33 83.1182H126.355Z" fill="#F7F7F7"/>
<path opacity="0.1" d="M86.775 105.558C76.6883 107.892 66.5933 110.184 56.49 112.434L73.99 37.2968C81.7633 35.0615 89.5233 32.7697 97.27 30.4215L86.775 105.558Z" fill="#130F26"/>
<path opacity="0.1" d="M144.145 105.558C134.478 107.903 124.812 110.195 115.145 112.434C116.312 87.4003 117.478 62.3547 118.645 37.2968C125.978 35.0509 133.312 32.7591 140.645 30.4215C141.808 55.4688 142.975 80.5144 144.145 105.558Z" fill="#130F26"/>
<path opacity="0.1" d="M201.5 105.558C192.27 107.892 183.03 110.184 173.78 112.434L163.28 37.2968C170.2 35.0509 177.105 32.7591 183.995 30.4215L201.5 105.558Z" fill="#130F26"/>
<path opacity="0.1" d="M172.72 56.2463C172.72 56.8334 171.33 57.3041 169.62 57.3041C167.91 57.3041 166.525 56.8334 166.525 56.2463C166.525 55.6593 167.91 55.1886 169.62 55.1886C171.33 55.1886 172.72 55.6646 172.72 56.2463Z" fill="#130F26"/>
<path d="M169.88 55.8919C171.445 55.8919 172.72 52.6447 172.72 50.9893C172.72 50.1921 172.421 49.4275 171.888 48.8633C171.356 48.2991 170.634 47.9814 169.88 47.98H169.38C169.007 47.98 168.637 48.0579 168.292 48.2092C167.947 48.3605 167.634 48.5822 167.37 48.8618C167.106 49.1413 166.897 49.473 166.755 49.8381C166.612 50.2032 166.539 50.5944 166.54 50.9893C166.54 52.6447 167.81 55.8919 169.38 55.8919H169.88ZM168.745 50.9893C168.783 50.8145 168.866 50.6545 168.986 50.5277C169.106 50.4009 169.257 50.3125 169.423 50.2727C169.588 50.2328 169.76 50.2432 169.92 50.3026C170.08 50.362 170.221 50.4679 170.327 50.6082C170.432 50.7486 170.498 50.9176 170.517 51.0958C170.536 51.274 170.506 51.4542 170.433 51.6156C170.359 51.777 170.243 51.9131 170.099 52.0081C169.956 52.1032 169.79 52.1533 169.62 52.1528C169.372 52.0911 169.15 51.9427 168.992 51.7316C168.833 51.5205 168.746 51.259 168.745 50.9893Z" fill="#1C3857"/>
<path d="M169.365 47.98C168.992 47.98 168.622 48.0579 168.277 48.2092C167.932 48.3605 167.619 48.5822 167.355 48.8618C167.091 49.1413 166.882 49.473 166.74 49.8381C166.597 50.2032 166.524 50.5944 166.525 50.9893C166.525 52.6447 167.795 55.8919 169.365 55.8919C170.935 55.8919 172.205 52.6447 172.205 50.9893C172.206 50.5944 172.133 50.2032 171.99 49.8381C171.848 49.473 171.639 49.1413 171.375 48.8618C171.111 48.5822 170.798 48.3605 170.453 48.2092C170.108 48.0579 169.738 47.98 169.365 47.98V47.98ZM169.365 52.1846C169.14 52.1846 168.921 52.114 168.734 51.9819C168.547 51.8497 168.402 51.6619 168.316 51.4422C168.23 51.2225 168.208 50.9809 168.252 50.7479C168.296 50.5148 168.405 50.3009 168.564 50.1332C168.723 49.9656 168.926 49.8516 169.147 49.8059C169.367 49.7602 169.595 49.7847 169.803 49.8764C170.01 49.9681 170.187 50.1228 170.311 50.3209C170.435 50.519 170.501 50.7517 170.5 50.9893C170.5 51.1467 170.471 51.3026 170.413 51.4479C170.356 51.5933 170.273 51.7253 170.167 51.8364C170.062 51.9474 169.937 52.0353 169.799 52.0951C169.661 52.1549 169.514 52.1853 169.365 52.1846V52.1846Z" fill="#007AFF"/>
<path opacity="0.3" d="M169.365 47.98C168.992 47.98 168.622 48.0579 168.277 48.2092C167.932 48.3605 167.619 48.5822 167.355 48.8618C167.091 49.1413 166.882 49.473 166.74 49.8381C166.597 50.2032 166.524 50.5944 166.525 50.9893C166.525 52.6447 167.795 55.8919 169.365 55.8919C170.935 55.8919 172.205 52.6447 172.205 50.9893C172.206 50.5944 172.133 50.2032 171.99 49.8381C171.848 49.473 171.639 49.1413 171.375 48.8618C171.111 48.5822 170.798 48.3605 170.453 48.2092C170.108 48.0579 169.738 47.98 169.365 47.98V47.98ZM169.365 52.1846C169.14 52.1846 168.921 52.114 168.734 51.9819C168.547 51.8497 168.402 51.6619 168.316 51.4422C168.23 51.2225 168.208 50.9809 168.252 50.7479C168.296 50.5148 168.405 50.3009 168.564 50.1332C168.723 49.9656 168.926 49.8516 169.147 49.8059C169.367 49.7602 169.595 49.7847 169.803 49.8764C170.01 49.9681 170.187 50.1228 170.311 50.3209C170.435 50.519 170.501 50.7517 170.5 50.9893C170.5 51.1467 170.471 51.3026 170.413 51.4479C170.356 51.5933 170.273 51.7253 170.167 51.8364C170.062 51.9474 169.937 52.0353 169.799 52.0951C169.661 52.1549 169.514 52.1853 169.365 52.1846V52.1846Z" fill="#130F26"/>
<path opacity="0.1" d="M150.085 83.5519C150.085 84.1336 148.7 84.6096 146.99 84.6096C145.28 84.6096 143.89 84.1336 143.89 83.5519C143.89 82.9701 145.28 82.4941 146.99 82.4941C148.7 82.4941 150.085 82.9648 150.085 83.5519Z" fill="#130F26"/>
<path d="M147.245 83.1923C148.815 83.1923 150.085 79.9503 150.085 78.2896C150.085 77.4929 149.786 76.7288 149.253 76.1655C148.721 75.6021 147.998 75.2856 147.245 75.2856H146.745C146.372 75.285 146.002 75.3621 145.657 75.5128C145.311 75.6634 144.998 75.8846 144.734 76.1636C144.469 76.4426 144.26 76.774 144.117 77.1388C143.974 77.5036 143.9 77.8947 143.9 78.2896C143.9 79.9503 145.175 83.1923 146.745 83.1923H147.245ZM146.115 78.2896C146.153 78.1148 146.236 77.9548 146.356 77.828C146.476 77.7012 146.627 77.6128 146.793 77.573C146.958 77.5332 147.13 77.5435 147.29 77.6029C147.45 77.6623 147.591 77.7682 147.697 77.9086C147.802 78.0489 147.868 78.2179 147.887 78.3961C147.906 78.5744 147.876 78.7545 147.803 78.9159C147.729 79.0774 147.613 79.2134 147.469 79.3084C147.326 79.4035 147.16 79.4536 146.99 79.4531C146.741 79.3931 146.519 79.2452 146.36 79.0337C146.201 78.8223 146.114 78.5598 146.115 78.2896Z" fill="#1C3857"/>
<path d="M146.735 75.2856C146.362 75.285 145.992 75.3621 145.647 75.5128C145.302 75.6634 144.988 75.8846 144.724 76.1636C144.459 76.4426 144.25 76.774 144.107 77.1388C143.964 77.5036 143.89 77.8947 143.89 78.2896C143.89 79.9503 145.165 83.1923 146.735 83.1923C148.305 83.1923 149.575 79.9503 149.575 78.2896C149.575 77.8951 149.502 77.5045 149.359 77.1401C149.216 76.7756 149.007 76.4444 148.743 76.1655C148.479 75.8865 148.166 75.6653 147.822 75.5143C147.477 75.3633 147.108 75.2856 146.735 75.2856V75.2856ZM146.735 79.5166C146.51 79.5177 146.29 79.4481 146.103 79.3169C145.916 79.1856 145.77 78.9985 145.683 78.7792C145.596 78.5599 145.573 78.3184 145.616 78.0851C145.659 77.8519 145.767 77.6375 145.926 77.4691C146.084 77.3006 146.286 77.1858 146.507 77.139C146.727 77.0923 146.956 77.1157 147.163 77.2064C147.371 77.2971 147.548 77.451 147.673 77.6485C147.798 77.8461 147.865 78.0784 147.865 78.3161C147.859 78.629 147.737 78.9268 147.526 79.1461C147.315 79.3654 147.031 79.4889 146.735 79.4902V79.5166Z" fill="#007AFF"/>
<path opacity="0.3" d="M146.735 75.2856C146.362 75.285 145.992 75.3621 145.647 75.5128C145.302 75.6634 144.988 75.8846 144.724 76.1636C144.459 76.4426 144.25 76.774 144.107 77.1388C143.964 77.5036 143.89 77.8947 143.89 78.2896C143.89 79.9503 145.165 83.1923 146.735 83.1923C148.305 83.1923 149.575 79.9503 149.575 78.2896C149.575 77.8951 149.502 77.5045 149.359 77.1401C149.216 76.7756 149.007 76.4444 148.743 76.1655C148.479 75.8865 148.166 75.6653 147.822 75.5143C147.477 75.3633 147.108 75.2856 146.735 75.2856V75.2856ZM146.735 79.5166C146.51 79.5177 146.29 79.4481 146.103 79.3169C145.916 79.1856 145.77 78.9985 145.683 78.7792C145.596 78.5599 145.573 78.3184 145.616 78.0851C145.659 77.8519 145.767 77.6375 145.926 77.4691C146.084 77.3006 146.286 77.1858 146.507 77.139C146.727 77.0923 146.956 77.1157 147.163 77.2064C147.371 77.2971 147.548 77.451 147.673 77.6485C147.798 77.8461 147.865 78.0784 147.865 78.3161C147.859 78.629 147.737 78.9268 147.526 79.1461C147.315 79.3654 147.031 79.4889 146.735 79.4902V79.5166Z" fill="#130F26"/>
<path opacity="0.1" d="M102.74 86.0905C102.74 86.6775 101.35 87.1482 99.64 87.1482C97.93 87.1482 96.545 86.6775 96.545 86.0905C96.545 85.5034 97.93 85.0327 99.64 85.0327C101.35 85.0327 102.74 85.514 102.74 86.0905Z" fill="#130F26"/>
<path d="M99.9 85.7414C101.465 85.7414 102.74 82.4942 102.74 80.8388C102.74 80.0416 102.441 79.277 101.908 78.7128C101.376 78.1486 100.654 77.8309 99.9 77.8295H99.4C99.0266 77.8295 98.6569 77.9074 98.312 78.0587C97.9671 78.21 97.6538 78.4317 97.39 78.7112C97.1263 78.9907 96.9172 79.3225 96.7747 79.6876C96.6323 80.0527 96.5593 80.4439 96.56 80.8388C96.56 82.4942 97.83 85.7414 99.4 85.7414H99.9ZM98.765 80.8388C98.8027 80.664 98.8863 80.5039 99.0062 80.3772C99.126 80.2504 99.2773 80.162 99.4426 80.1222C99.6079 80.0823 99.7805 80.0927 99.9405 80.1521C100.1 80.2114 100.241 80.3174 100.347 80.4577C100.452 80.5981 100.518 80.7671 100.537 80.9453C100.556 81.1235 100.526 81.3037 100.453 81.4651C100.379 81.6265 100.263 81.7626 100.12 81.8576C99.9757 81.9527 99.8095 82.0028 99.64 82.0023C99.3918 81.9405 99.1705 81.7921 99.0117 81.5811C98.853 81.37 98.7661 81.1085 98.765 80.8388V80.8388Z" fill="#1C3857"/>
<path d="M99.385 77.8295C99.0116 77.8295 98.6419 77.9074 98.297 78.0587C97.9521 78.21 97.6388 78.4317 97.375 78.7112C97.1113 78.9907 96.9022 79.3225 96.7597 79.6876C96.6173 80.0527 96.5443 80.4439 96.545 80.8388C96.545 82.4942 97.815 85.7414 99.385 85.7414C100.955 85.7414 102.225 82.4942 102.225 80.8388C102.226 80.4439 102.153 80.0527 102.01 79.6876C101.868 79.3225 101.659 78.9907 101.395 78.7112C101.131 78.4317 100.818 78.21 100.473 78.0587C100.128 77.9074 99.7584 77.8295 99.385 77.8295V77.8295ZM99.385 82.0605C99.1601 82.0615 98.94 81.9919 98.7525 81.8604C98.5651 81.7289 98.4189 81.5414 98.3324 81.3218C98.2458 81.1022 98.2229 80.8604 98.2666 80.6271C98.3102 80.3937 98.4184 80.1793 98.5774 80.0111C98.7365 79.8428 98.9392 79.7284 99.1598 79.6822C99.3804 79.6361 99.6091 79.6603 99.8166 79.7518C100.024 79.8433 100.201 79.998 100.326 80.1963C100.45 80.3945 100.516 80.6274 100.515 80.8652C100.508 81.1776 100.387 81.4749 100.175 81.6934C99.9641 81.9118 99.6804 82.0341 99.385 82.0341V82.0605Z" fill="#007AFF"/>
<path opacity="0.3" d="M99.385 77.8295C99.0116 77.8295 98.6419 77.9074 98.297 78.0587C97.9521 78.21 97.6388 78.4317 97.375 78.7112C97.1113 78.9907 96.9022 79.3225 96.7597 79.6876C96.6173 80.0527 96.5443 80.4439 96.545 80.8388C96.545 82.4942 97.815 85.7414 99.385 85.7414C100.955 85.7414 102.225 82.4942 102.225 80.8388C102.226 80.4439 102.153 80.0527 102.01 79.6876C101.868 79.3225 101.659 78.9907 101.395 78.7112C101.131 78.4317 100.818 78.21 100.473 78.0587C100.128 77.9074 99.7584 77.8295 99.385 77.8295V77.8295ZM99.385 82.0605C99.1601 82.0615 98.94 81.9919 98.7525 81.8604C98.5651 81.7289 98.4189 81.5414 98.3324 81.3218C98.2458 81.1022 98.2229 80.8604 98.2666 80.6271C98.3102 80.3937 98.4184 80.1793 98.5774 80.0111C98.7365 79.8428 98.9392 79.7284 99.1598 79.6822C99.3804 79.6361 99.6091 79.6603 99.8166 79.7518C100.024 79.8433 100.201 79.998 100.326 80.1963C100.45 80.3945 100.516 80.6274 100.515 80.8652C100.508 81.1776 100.387 81.4749 100.175 81.6934C99.9641 81.9118 99.6804 82.0341 99.385 82.0341V82.0605Z" fill="#130F26"/>
<path opacity="0.1" d="M92.57 55.5376C92.57 56.1246 91.185 56.5953 89.475 56.5953C87.765 56.5953 86.375 56.1246 86.375 55.5376C86.375 54.9506 87.765 54.4799 89.475 54.4799C91.185 54.4799 92.57 54.9558 92.57 55.5376Z" fill="#130F26"/>
<path d="M89.73 55.1833C91.3 55.1833 92.57 51.936 92.57 50.2806C92.5707 49.8857 92.4977 49.4945 92.3553 49.1294C92.2128 48.7644 92.0037 48.4326 91.74 48.1531C91.4762 47.8736 91.1629 47.6518 90.818 47.5005C90.4731 47.3492 90.1034 47.2714 89.73 47.2714H89.23C88.4755 47.2714 87.7518 47.5884 87.2183 48.1528C86.6848 48.7171 86.385 49.4825 86.385 50.2806C86.385 51.936 87.66 55.1833 89.23 55.1833H89.73ZM88.6 50.2806C88.6377 50.1058 88.7213 49.9458 88.8412 49.819C88.961 49.6922 89.1123 49.6038 89.2776 49.564C89.4429 49.5242 89.6155 49.5345 89.7755 49.5939C89.9354 49.6533 90.0763 49.7592 90.1818 49.8996C90.2874 50.0399 90.3533 50.2089 90.372 50.3871C90.3907 50.5654 90.3615 50.7455 90.2876 50.9069C90.2137 51.0684 90.0983 51.2044 89.9545 51.2995C89.8108 51.3945 89.6445 51.4447 89.475 51.4442C89.2259 51.3841 89.0036 51.2362 88.8446 51.0247C88.6855 50.8133 88.5993 50.5508 88.6 50.2806V50.2806Z" fill="#1C3857"/>
<path d="M89.22 47.2714C88.4655 47.2714 87.7418 47.5884 87.2083 48.1528C86.6747 48.7171 86.375 49.4825 86.375 50.2806C86.375 51.936 87.65 55.1833 89.22 55.1833C90.79 55.1833 92.06 51.936 92.06 50.2806C92.06 49.4834 91.7609 48.7188 91.2285 48.1546C90.696 47.5904 89.9737 47.2728 89.22 47.2714ZM89.22 51.5023C88.9951 51.5034 88.775 51.4337 88.5876 51.3022C88.4001 51.1707 88.2539 50.9832 88.1674 50.7637C88.0808 50.5441 88.0579 50.3023 88.1016 50.0689C88.1452 49.8355 88.2534 49.6211 88.4124 49.4529C88.5715 49.2847 88.7742 49.1702 88.9948 49.1241C89.2154 49.0779 89.4441 49.1021 89.6517 49.1937C89.8593 49.2852 90.0365 49.4399 90.1608 49.6381C90.2851 49.8363 90.351 50.0692 90.35 50.3071C90.3422 50.619 90.2199 50.9155 90.0089 51.1337C89.798 51.3519 89.515 51.4746 89.22 51.4759V51.5023Z" fill="#007AFF"/>
<path opacity="0.3" d="M89.22 47.2714C88.4655 47.2714 87.7418 47.5884 87.2083 48.1528C86.6747 48.7171 86.375 49.4825 86.375 50.2806C86.375 51.936 87.65 55.1833 89.22 55.1833C90.79 55.1833 92.06 51.936 92.06 50.2806C92.06 49.4834 91.7609 48.7188 91.2285 48.1546C90.696 47.5904 89.9737 47.2728 89.22 47.2714ZM89.22 51.5023C88.9951 51.5034 88.775 51.4337 88.5876 51.3022C88.4001 51.1707 88.2539 50.9832 88.1674 50.7637C88.0808 50.5441 88.0579 50.3023 88.1016 50.0689C88.1452 49.8355 88.2534 49.6211 88.4124 49.4529C88.5715 49.2847 88.7742 49.1702 88.9948 49.1241C89.2154 49.0779 89.4441 49.1021 89.6517 49.1937C89.8593 49.2852 90.0365 49.4399 90.1608 49.6381C90.2851 49.8363 90.351 50.0692 90.35 50.3071C90.3422 50.619 90.2199 50.9155 90.0089 51.1337C89.798 51.3519 89.515 51.4746 89.22 51.4759V51.5023Z" fill="#130F26"/>
<path opacity="0.1" d="M141.07 57.2987C141.07 57.8805 139.685 58.3565 137.975 58.3565C136.265 58.3565 134.875 57.8805 134.875 57.2987C134.875 56.717 136.265 56.241 137.975 56.241C139.685 56.241 141.07 56.7117 141.07 57.2987Z" fill="#130F26"/>
<path d="M138.23 56.9391C139.8 56.9391 141.07 53.6971 141.07 52.0365C141.071 51.6415 140.998 51.2503 140.855 50.8853C140.713 50.5202 140.504 50.1884 140.24 49.9089C139.976 49.6294 139.663 49.4077 139.318 49.2564C138.973 49.1051 138.603 49.0272 138.23 49.0272H137.73C136.975 49.0272 136.252 49.3442 135.718 49.9086C135.185 50.4729 134.885 51.2384 134.885 52.0365C134.885 53.6971 136.16 56.9391 137.73 56.9391H138.23ZM137.1 52.0365C137.138 51.8616 137.221 51.7016 137.341 51.5748C137.461 51.448 137.612 51.3596 137.778 51.3198C137.943 51.28 138.116 51.2904 138.275 51.3497C138.435 51.4091 138.576 51.5151 138.682 51.6554C138.787 51.7957 138.853 51.9647 138.872 52.143C138.891 52.3212 138.861 52.5014 138.788 52.6628C138.714 52.8242 138.598 52.9602 138.455 53.0553C138.311 53.1503 138.145 53.2005 137.975 53.2C137.726 53.1399 137.504 52.992 137.345 52.7806C137.186 52.5691 137.099 52.3067 137.1 52.0365V52.0365Z" fill="#1C3857"/>
<path d="M137.72 49.0272C136.965 49.0272 136.242 49.3442 135.708 49.9086C135.175 50.4729 134.875 51.2384 134.875 52.0365C134.875 53.6971 136.15 56.9391 137.72 56.9391C139.29 56.9391 140.56 53.6971 140.56 52.0365C140.56 51.2393 140.261 50.4746 139.728 49.9105C139.196 49.3463 138.474 49.0286 137.72 49.0272V49.0272ZM137.72 53.2582C137.495 53.2592 137.275 53.1896 137.088 53.058C136.9 52.9265 136.754 52.7391 136.667 52.5195C136.581 52.2999 136.558 52.0581 136.602 51.8247C136.645 51.5913 136.753 51.3769 136.912 51.2087C137.071 51.0405 137.274 50.9261 137.495 50.8799C137.715 50.8338 137.944 50.858 138.152 50.9495C138.359 51.041 138.536 51.1957 138.661 51.3939C138.785 51.5922 138.851 51.825 138.85 52.0629C138.842 52.3749 138.72 52.6714 138.509 52.8895C138.298 53.1077 138.015 53.2304 137.72 53.2317V53.2582Z" fill="#007AFF"/>
<path opacity="0.3" d="M137.72 49.0272C136.965 49.0272 136.242 49.3442 135.708 49.9086C135.175 50.4729 134.875 51.2384 134.875 52.0365C134.875 53.6971 136.15 56.9391 137.72 56.9391C139.29 56.9391 140.56 53.6971 140.56 52.0365C140.56 51.2393 140.261 50.4746 139.728 49.9105C139.196 49.3463 138.474 49.0286 137.72 49.0272V49.0272ZM137.72 53.2582C137.495 53.2592 137.275 53.1896 137.088 53.058C136.9 52.9265 136.754 52.7391 136.667 52.5195C136.581 52.2999 136.558 52.0581 136.602 51.8247C136.645 51.5913 136.753 51.3769 136.912 51.2087C137.071 51.0405 137.274 50.9261 137.495 50.8799C137.715 50.8338 137.944 50.858 138.152 50.9495C138.359 51.041 138.536 51.1957 138.661 51.3939C138.785 51.5922 138.851 51.825 138.85 52.0629C138.842 52.3749 138.72 52.6714 138.509 52.8895C138.298 53.1077 138.015 53.2304 137.72 53.2317V53.2582Z" fill="#130F26"/>
<path d="M87.225 32.3523C88.1809 33.2408 89.4178 33.7166 90.69 33.6851H168.885C169.597 33.6851 170.302 33.5366 170.96 33.2482C171.618 32.9598 172.216 32.537 172.719 32.0041C173.223 31.4712 173.622 30.8386 173.894 30.1424C174.166 29.4462 174.306 28.7002 174.305 27.9469V25.4929C174.348 24.3789 174.041 23.2813 173.43 22.3726C172.68 21.4232 171.859 20.5389 170.975 19.7282C170.09 19.0139 168.997 18.6507 167.885 18.7022H89.69C88.2512 18.7022 86.8713 19.3068 85.8539 20.3829C84.8365 21.459 84.265 22.9186 84.265 24.4404V26.8944C84.2188 27.9509 84.4958 28.9951 85.055 29.8719C85.7243 30.7499 86.4493 31.5786 87.225 32.3523V32.3523Z" fill="#007AFF"/>
<path opacity="0.8" d="M167.88 18.6965H89.69C86.6938 18.6965 84.265 21.2656 84.265 24.4347V26.8887C84.265 30.0578 86.6938 32.6269 89.69 32.6269H167.88C170.876 32.6269 173.305 30.0578 173.305 26.8887V24.4347C173.305 21.2656 170.876 18.6965 167.88 18.6965Z" fill="#F7F7F7"/>
<path d="M158.345 30.8605C158.125 30.8605 157.914 30.768 157.758 30.6034C157.602 30.4387 157.515 30.2154 157.515 29.9826V21.3408C157.515 21.108 157.602 20.8847 157.758 20.72C157.914 20.5554 158.125 20.4629 158.345 20.4629V20.4629C158.454 20.4629 158.562 20.4856 158.663 20.5297C158.763 20.5738 158.855 20.6385 158.932 20.72C159.009 20.8015 159.07 20.8983 159.112 21.0048C159.154 21.1114 159.175 21.2255 159.175 21.3408V29.9826C159.175 30.0979 159.154 30.212 159.112 30.3185C159.07 30.425 159.009 30.5218 158.932 30.6034C158.855 30.6849 158.763 30.7495 158.663 30.7937C158.562 30.8378 158.454 30.8605 158.345 30.8605V30.8605Z" fill="#007AFF"/>
<path d="M166.85 22.3192C166.447 21.8929 165.937 21.5969 165.38 21.4661C164.823 21.3353 164.243 21.375 163.707 21.5805C163.171 21.7861 162.701 22.149 162.353 22.6268C162.005 23.1045 161.793 23.6773 161.742 24.2781C161.69 24.8788 161.802 25.4825 162.063 26.0186C162.325 26.5546 162.725 27.0007 163.218 27.3047C163.71 27.6086 164.274 27.7578 164.844 27.7347C165.414 27.7116 165.966 27.5172 166.435 27.1743C166.459 27.284 166.511 27.3847 166.585 27.4651L168.735 29.7393C168.793 29.8008 168.862 29.8495 168.938 29.8828C169.014 29.916 169.095 29.9332 169.178 29.9332C169.26 29.9332 169.341 29.916 169.417 29.8828C169.493 29.8495 169.562 29.8008 169.62 29.7393C169.678 29.6778 169.724 29.6049 169.756 29.5245C169.787 29.4442 169.803 29.3582 169.803 29.2712C169.803 29.1843 169.787 29.0982 169.756 29.0179C169.724 28.9376 169.678 28.8647 169.62 28.8032L167.47 26.529C167.394 26.4503 167.299 26.3953 167.195 26.3704C167.595 25.7593 167.78 25.019 167.717 24.2786C167.654 23.5383 167.347 22.8448 166.85 22.3192ZM166.095 26.0213C165.825 26.3078 165.48 26.503 165.104 26.5821C164.729 26.6613 164.34 26.6209 163.986 26.466C163.632 26.3112 163.33 26.0488 163.117 25.7122C162.905 25.3756 162.791 24.9798 162.791 24.5749C162.791 24.17 162.905 23.7742 163.117 23.4375C163.33 23.1009 163.632 22.8386 163.986 22.6837C164.34 22.5289 164.729 22.4885 165.104 22.5676C165.48 22.6468 165.825 22.8419 166.095 23.1284C166.454 23.5117 166.656 24.0297 166.656 24.5696C166.656 25.1094 166.454 25.6274 166.095 26.0108V26.0213Z" fill="#007AFF"/>
<g opacity="0.3">
<path opacity="0.3" d="M158.345 30.8605C158.125 30.8605 157.914 30.768 157.758 30.6034C157.602 30.4387 157.515 30.2154 157.515 29.9826V21.3408C157.515 21.108 157.602 20.8847 157.758 20.72C157.914 20.5554 158.125 20.4629 158.345 20.4629V20.4629C158.454 20.4629 158.562 20.4856 158.663 20.5297C158.763 20.5738 158.855 20.6385 158.932 20.72C159.009 20.8015 159.07 20.8983 159.112 21.0048C159.154 21.1114 159.175 21.2255 159.175 21.3408V29.9826C159.175 30.0979 159.154 30.212 159.112 30.3185C159.07 30.425 159.009 30.5218 158.932 30.6034C158.855 30.6849 158.763 30.7495 158.663 30.7937C158.562 30.8378 158.454 30.8605 158.345 30.8605V30.8605Z" fill="#F7F7F7"/>
<path opacity="0.3" d="M166.85 22.3192C166.447 21.8929 165.937 21.5969 165.38 21.4661C164.823 21.3353 164.243 21.375 163.707 21.5805C163.171 21.7861 162.701 22.149 162.353 22.6268C162.005 23.1045 161.793 23.6773 161.742 24.2781C161.69 24.8788 161.802 25.4825 162.063 26.0186C162.325 26.5546 162.725 27.0007 163.218 27.3047C163.71 27.6086 164.274 27.7578 164.844 27.7347C165.414 27.7116 165.966 27.5172 166.435 27.1743C166.459 27.284 166.511 27.3847 166.585 27.4651L168.735 29.7393C168.793 29.8008 168.862 29.8495 168.938 29.8828C169.014 29.916 169.095 29.9332 169.178 29.9332C169.26 29.9332 169.341 29.916 169.417 29.8828C169.493 29.8495 169.562 29.8008 169.62 29.7393C169.678 29.6778 169.724 29.6049 169.756 29.5245C169.787 29.4442 169.803 29.3582 169.803 29.2712C169.803 29.1843 169.787 29.0982 169.756 29.0179C169.724 28.9376 169.678 28.8647 169.62 28.8032L167.47 26.529C167.394 26.4503 167.299 26.3953 167.195 26.3704C167.595 25.7593 167.78 25.019 167.717 24.2786C167.654 23.5383 167.347 22.8448 166.85 22.3192ZM166.095 26.0213C165.825 26.3078 165.48 26.503 165.104 26.5821C164.729 26.6613 164.34 26.6209 163.986 26.466C163.632 26.3112 163.33 26.0488 163.117 25.7122C162.905 25.3756 162.791 24.9798 162.791 24.5749C162.791 24.17 162.905 23.7742 163.117 23.4375C163.33 23.1009 163.632 22.8386 163.986 22.6837C164.34 22.5289 164.729 22.4885 165.104 22.5676C165.48 22.6468 165.825 22.8419 166.095 23.1284C166.454 23.5117 166.656 24.0297 166.656 24.5696C166.656 25.1094 166.454 25.6274 166.095 26.0108V26.0213Z" fill="#F7F7F7"/>
</g>
<path d="M90.168 25.8873C89.8464 25.7948 89.612 25.6815 89.4648 25.5474C89.319 25.412 89.2461 25.2453 89.2461 25.0474C89.2461 24.8235 89.3353 24.6386 89.5137 24.4927C89.6934 24.3456 89.9264 24.272 90.2129 24.272C90.4082 24.272 90.582 24.3098 90.7344 24.3853C90.888 24.4608 91.0065 24.565 91.0898 24.6978C91.1745 24.8306 91.2168 24.9758 91.2168 25.1334H90.8398C90.8398 24.9615 90.7852 24.8267 90.6758 24.7291C90.5664 24.6301 90.4121 24.5806 90.2129 24.5806C90.028 24.5806 89.8835 24.6216 89.7793 24.7037C89.6764 24.7844 89.625 24.897 89.625 25.0416C89.625 25.1575 89.6738 25.2558 89.7715 25.3365C89.8704 25.4159 90.0378 25.4888 90.2734 25.5552C90.5104 25.6216 90.6953 25.6952 90.8281 25.7759C90.9622 25.8554 91.0612 25.9485 91.125 26.0552C91.1901 26.162 91.2227 26.2877 91.2227 26.4322C91.2227 26.6627 91.1328 26.8476 90.9531 26.9869C90.7734 27.1249 90.5332 27.1939 90.2324 27.1939C90.0371 27.1939 89.8548 27.1568 89.6855 27.0826C89.5163 27.0071 89.3854 26.9042 89.293 26.774C89.2018 26.6438 89.1562 26.496 89.1562 26.3306H89.5332C89.5332 26.5025 89.5964 26.6386 89.7227 26.7388C89.8503 26.8378 90.0202 26.8873 90.2324 26.8873C90.4303 26.8873 90.582 26.8469 90.6875 26.7662C90.793 26.6854 90.8457 26.5754 90.8457 26.4361C90.8457 26.2968 90.7969 26.1894 90.6992 26.1138C90.6016 26.037 90.4245 25.9615 90.168 25.8873ZM92.5254 27.1939C92.2389 27.1939 92.0059 27.1002 91.8262 26.9127C91.6465 26.7239 91.5566 26.4719 91.5566 26.1568V26.0904C91.5566 25.8808 91.5964 25.6939 91.6758 25.5298C91.7565 25.3645 91.8685 25.2356 92.0117 25.1431C92.1562 25.0494 92.3125 25.0025 92.4805 25.0025C92.7552 25.0025 92.9688 25.093 93.1211 25.274C93.2734 25.455 93.3496 25.7141 93.3496 26.0513V26.2017H91.918C91.9232 26.4101 91.9837 26.5787 92.0996 26.7076C92.2168 26.8352 92.3652 26.899 92.5449 26.899C92.6725 26.899 92.7806 26.8729 92.8691 26.8209C92.9577 26.7688 93.0352 26.6998 93.1016 26.6138L93.3223 26.7857C93.1452 27.0578 92.8796 27.1939 92.5254 27.1939ZM92.4805 25.2994C92.3346 25.2994 92.2122 25.3528 92.1133 25.4595C92.0143 25.565 91.9531 25.7134 91.9297 25.9048H92.9883V25.8775C92.9779 25.6939 92.9284 25.552 92.8398 25.4517C92.7513 25.3502 92.6315 25.2994 92.4805 25.2994ZM95.0742 27.1548C95.0534 27.1132 95.0365 27.039 95.0234 26.9322C94.8555 27.1067 94.6549 27.1939 94.4219 27.1939C94.2135 27.1939 94.0423 27.1353 93.9082 27.0181C93.7754 26.8996 93.709 26.7499 93.709 26.5689C93.709 26.3489 93.7923 26.1783 93.959 26.0572C94.127 25.9348 94.3626 25.8736 94.666 25.8736H95.0176V25.7076C95.0176 25.5813 94.9798 25.481 94.9043 25.4068C94.8288 25.3313 94.7174 25.2935 94.5703 25.2935C94.4414 25.2935 94.3333 25.3261 94.2461 25.3912C94.1589 25.4563 94.1152 25.5351 94.1152 25.6275H93.752C93.752 25.522 93.7891 25.4205 93.8633 25.3228C93.9388 25.2239 94.0404 25.1457 94.168 25.0884C94.2969 25.0311 94.4382 25.0025 94.5918 25.0025C94.8353 25.0025 95.026 25.0637 95.1641 25.1861C95.3021 25.3072 95.3737 25.4745 95.3789 25.688V26.6607C95.3789 26.8547 95.4036 27.009 95.4531 27.1236V27.1548H95.0742ZM94.4746 26.8795C94.5879 26.8795 94.6953 26.8502 94.7969 26.7916C94.8984 26.733 94.972 26.6568 95.0176 26.563V26.1295H94.7344C94.2917 26.1295 94.0703 26.259 94.0703 26.5181C94.0703 26.6314 94.1081 26.72 94.1836 26.7838C94.2591 26.8476 94.3561 26.8795 94.4746 26.8795ZM96.9668 25.3658C96.9121 25.3567 96.8529 25.3521 96.7891 25.3521C96.5521 25.3521 96.3913 25.453 96.3066 25.6548V27.1548H95.9453V25.0416H96.2969L96.3027 25.2857C96.4212 25.0969 96.5892 25.0025 96.8066 25.0025C96.877 25.0025 96.9303 25.0116 96.9668 25.0298V25.3658ZM98.1094 26.899C98.2383 26.899 98.3509 26.8599 98.4473 26.7818C98.5436 26.7037 98.597 26.606 98.6074 26.4888H98.9492C98.9427 26.6099 98.901 26.7252 98.8242 26.8345C98.7474 26.9439 98.6445 27.0311 98.5156 27.0963C98.388 27.1614 98.2526 27.1939 98.1094 27.1939C97.8216 27.1939 97.5924 27.0982 97.4219 26.9068C97.2526 26.7141 97.168 26.4511 97.168 26.1177V26.0572C97.168 25.8515 97.2057 25.6685 97.2812 25.5084C97.3568 25.3482 97.4648 25.2239 97.6055 25.1353C97.7474 25.0468 97.9147 25.0025 98.1074 25.0025C98.3444 25.0025 98.541 25.0735 98.6973 25.2154C98.8548 25.3573 98.9388 25.5416 98.9492 25.7681H98.6074C98.597 25.6314 98.5449 25.5194 98.4512 25.4322C98.3587 25.3436 98.2441 25.2994 98.1074 25.2994C97.9238 25.2994 97.7812 25.3658 97.6797 25.4986C97.5794 25.6301 97.5293 25.8209 97.5293 26.0709V26.1392C97.5293 26.3827 97.5794 26.5702 97.6797 26.7017C97.7799 26.8332 97.9232 26.899 98.1094 26.899ZM99.7168 25.2974C99.877 25.1008 100.085 25.0025 100.342 25.0025C100.788 25.0025 101.014 25.2545 101.018 25.7584V27.1548H100.656V25.7564C100.655 25.6041 100.62 25.4914 100.551 25.4185C100.483 25.3456 100.377 25.3091 100.232 25.3091C100.115 25.3091 100.012 25.3404 99.9238 25.4029C99.8353 25.4654 99.7663 25.5474 99.7168 25.649V27.1548H99.3555V24.1548H99.7168V25.2974ZM101.951 27.1548H101.59V25.0416H101.951V27.1548ZM101.561 24.481C101.561 24.4224 101.578 24.3729 101.613 24.3326C101.65 24.2922 101.703 24.272 101.773 24.272C101.844 24.272 101.897 24.2922 101.934 24.3326C101.97 24.3729 101.988 24.4224 101.988 24.481C101.988 24.5396 101.97 24.5884 101.934 24.6275C101.897 24.6666 101.844 24.6861 101.773 24.6861C101.703 24.6861 101.65 24.6666 101.613 24.6275C101.578 24.5884 101.561 24.5396 101.561 24.481ZM102.873 25.0416L102.885 25.3072C103.046 25.1041 103.257 25.0025 103.518 25.0025C103.964 25.0025 104.189 25.2545 104.193 25.7584V27.1548H103.832V25.7564C103.831 25.6041 103.796 25.4914 103.727 25.4185C103.659 25.3456 103.553 25.3091 103.408 25.3091C103.291 25.3091 103.188 25.3404 103.1 25.4029C103.011 25.4654 102.942 25.5474 102.893 25.649V27.1548H102.531V25.0416H102.873ZM104.652 26.0806C104.652 25.7512 104.729 25.4895 104.881 25.2955C105.033 25.1002 105.235 25.0025 105.486 25.0025C105.744 25.0025 105.945 25.0936 106.09 25.2759L106.107 25.0416H106.438V27.1041C106.438 27.3775 106.356 27.593 106.193 27.7505C106.032 27.9081 105.814 27.9869 105.541 27.9869C105.389 27.9869 105.24 27.9543 105.094 27.8892C104.948 27.8241 104.837 27.7349 104.76 27.6216L104.947 27.4048C105.102 27.5963 105.292 27.692 105.516 27.692C105.691 27.692 105.828 27.6425 105.926 27.5435C106.025 27.4446 106.074 27.3052 106.074 27.1255V26.9439C105.93 27.1106 105.732 27.1939 105.482 27.1939C105.235 27.1939 105.035 27.0943 104.881 26.8951C104.729 26.6959 104.652 26.4244 104.652 26.0806ZM105.016 26.1216C105.016 26.3599 105.064 26.5474 105.162 26.6841C105.26 26.8196 105.396 26.8873 105.572 26.8873C105.8 26.8873 105.967 26.7838 106.074 26.5767V25.6119C105.964 25.4101 105.798 25.3091 105.576 25.3091C105.4 25.3091 105.263 25.3775 105.164 25.5142C105.065 25.6509 105.016 25.8534 105.016 26.1216ZM106.992 26.9654C106.992 26.9029 107.01 26.8508 107.047 26.8091C107.085 26.7675 107.141 26.7466 107.215 26.7466C107.289 26.7466 107.345 26.7675 107.383 26.8091C107.422 26.8508 107.441 26.9029 107.441 26.9654C107.441 27.0253 107.422 27.0754 107.383 27.1158C107.345 27.1561 107.289 27.1763 107.215 27.1763C107.141 27.1763 107.085 27.1561 107.047 27.1158C107.01 27.0754 106.992 27.0253 106.992 26.9654ZM108.047 26.9654C108.047 26.9029 108.065 26.8508 108.102 26.8091C108.139 26.7675 108.195 26.7466 108.27 26.7466C108.344 26.7466 108.4 26.7675 108.438 26.8091C108.477 26.8508 108.496 26.9029 108.496 26.9654C108.496 27.0253 108.477 27.0754 108.438 27.1158C108.4 27.1561 108.344 27.1763 108.27 27.1763C108.195 27.1763 108.139 27.1561 108.102 27.1158C108.065 27.0754 108.047 27.0253 108.047 26.9654ZM109.102 26.9654C109.102 26.9029 109.12 26.8508 109.156 26.8091C109.194 26.7675 109.25 26.7466 109.324 26.7466C109.398 26.7466 109.454 26.7675 109.492 26.8091C109.531 26.8508 109.551 26.9029 109.551 26.9654C109.551 27.0253 109.531 27.0754 109.492 27.1158C109.454 27.1561 109.398 27.1763 109.324 27.1763C109.25 27.1763 109.194 27.1561 109.156 27.1158C109.12 27.0754 109.102 27.0253 109.102 26.9654Z" fill="#263238" fill-opacity="0.75"/>
<path d="M171.88 140.252C167.919 140.776 163.911 140.776 159.95 140.252C155.95 139.808 153.36 136.354 154.075 133.128C154.135 132.88 154.16 132.753 154.215 132.499C154.935 129.273 158.035 127.327 161.19 127.676C164.328 128.088 167.502 128.088 170.64 127.676C173.795 127.327 176.895 129.262 177.61 132.499C177.67 132.753 177.695 132.88 177.75 133.128C178.47 136.333 175.865 139.808 171.88 140.252Z" fill="#007AFF"/>
<path d="M167.295 138.708L166.845 150.311H168.645L169.095 138.708H167.295Z" fill="#1C3857"/>
<path d="M160.535 150.311H162.335L162.785 138.708H160.985L160.535 150.311Z" fill="#1C3857"/>
<g opacity="0.6">
<path opacity="0.6" d="M167.295 138.708L166.845 150.311H168.645L169.095 138.708H167.295Z" fill="#F7F7F7"/>
<path opacity="0.6" d="M160.535 150.311H162.335L162.785 138.708H160.985L160.535 150.311Z" fill="#F7F7F7"/>
</g>
<path d="M167.63 153.849H147.115L145.315 192.975H146.795L149.495 156.975H155.925L156.8 192.975H157.945L158.82 156.975H165.25L167.95 192.975H169.43L167.63 153.849Z" fill="#1C3857"/>
<path opacity="0.6" d="M167.63 153.849H147.115L145.315 192.975H146.795L149.495 156.975H155.925L156.8 192.975H157.945L158.82 156.975H165.25L167.95 192.975H169.43L167.63 153.849Z" fill="#F7F7F7"/>
<path opacity="0.2" d="M167.63 153.849H147.115L146.97 156.975H149.495H155.925H158.82H165.25H167.775L167.63 153.849Z" fill="#130F26"/>
<path d="M171 140.252C167.037 140.776 163.028 140.776 159.065 140.252C155.065 139.808 152.48 136.354 153.195 133.128C153.25 132.88 153.28 132.753 153.335 132.499C154.05 129.273 157.15 127.327 160.305 127.676C163.443 128.088 166.617 128.088 169.755 127.676C172.915 127.327 176.015 129.262 176.73 132.499C176.785 132.753 176.815 132.88 176.87 133.128C177.585 136.333 175 139.808 171 140.252Z" fill="#007AFF"/>
<g opacity="0.5">
<path opacity="0.5" d="M171 140.252C167.037 140.776 163.028 140.776 159.065 140.252C155.065 139.808 152.48 136.354 153.195 133.128C153.25 132.88 153.28 132.753 153.335 132.499C154.05 129.273 157.15 127.327 160.305 127.676C163.443 128.088 166.617 128.088 169.755 127.676C172.915 127.327 176.015 129.262 176.73 132.499C176.785 132.753 176.815 132.88 176.87 133.128C177.585 136.333 175 139.808 171 140.252Z" fill="#F7F7F7"/>
</g>
<g opacity="0.7">
<path opacity="0.7" d="M170.5 133.789C170.5 133.951 170.454 134.11 170.369 134.245C170.284 134.38 170.163 134.485 170.022 134.547C169.88 134.609 169.724 134.625 169.574 134.593C169.423 134.562 169.285 134.484 169.177 134.369C169.069 134.254 168.995 134.108 168.965 133.949C168.935 133.79 168.95 133.625 169.009 133.476C169.068 133.326 169.167 133.198 169.294 133.108C169.422 133.018 169.572 132.97 169.725 132.97C169.931 132.97 170.128 133.056 170.273 133.21C170.418 133.363 170.5 133.572 170.5 133.789V133.789Z" fill="#F7F7F7"/>
<path opacity="0.7" d="M161.14 133.789C161.141 133.953 161.096 134.113 161.011 134.25C160.925 134.386 160.803 134.493 160.661 134.556C160.518 134.619 160.361 134.636 160.209 134.604C160.057 134.572 159.918 134.494 159.808 134.378C159.699 134.262 159.625 134.115 159.595 133.954C159.565 133.794 159.581 133.627 159.64 133.476C159.7 133.325 159.801 133.197 159.93 133.106C160.059 133.016 160.21 132.969 160.365 132.97C160.467 132.97 160.567 132.991 160.662 133.032C160.756 133.073 160.841 133.134 160.913 133.21C160.985 133.286 161.042 133.376 161.081 133.476C161.12 133.575 161.14 133.682 161.14 133.789V133.789Z" fill="#F7F7F7"/>
</g>
<path d="M170.295 154.548H144.45C144.126 154.548 143.805 154.481 143.506 154.35C143.207 154.22 142.935 154.028 142.705 153.785C142.476 153.543 142.295 153.255 142.171 152.939C142.048 152.622 141.984 152.283 141.985 151.94C141.985 151.249 142.245 150.585 142.707 150.097C143.169 149.608 143.796 149.333 144.45 149.333H170.295C170.949 149.333 171.576 149.608 172.038 150.097C172.5 150.585 172.76 151.249 172.76 151.94C172.761 152.283 172.697 152.622 172.574 152.939C172.45 153.255 172.269 153.543 172.039 153.785C171.81 154.028 171.538 154.22 171.239 154.35C170.94 154.481 170.619 154.548 170.295 154.548Z" fill="#007AFF"/>
<path opacity="0.5" d="M170.295 154.548H144.45C144.126 154.548 143.805 154.481 143.506 154.35C143.207 154.22 142.935 154.028 142.705 153.785C142.476 153.543 142.295 153.255 142.171 152.939C142.048 152.622 141.984 152.283 141.985 151.94C141.985 151.249 142.245 150.585 142.707 150.097C143.169 149.608 143.796 149.333 144.45 149.333H170.295C170.949 149.333 171.576 149.608 172.038 150.097C172.5 150.585 172.76 151.249 172.76 151.94C172.761 152.283 172.697 152.622 172.574 152.939C172.45 153.255 172.269 153.543 172.039 153.785C171.81 154.028 171.538 154.22 171.239 154.35C170.94 154.481 170.619 154.548 170.295 154.548Z" fill="#F7F7F7"/>
<path d="M138.195 98.9844C138.195 98.9844 132.02 93.9231 137.545 88.9358C137.545 88.9358 143.68 81.5951 147.495 86.9525C148.16 87.8834 151.055 86.9102 151.495 90.6546C151.905 94.0711 154.155 92.2412 153.93 96.0861C153.74 99.3546 156.07 98.5718 156.03 100.608C155.98 103.252 150.03 101.957 147.145 103.623C143.92 105.489 141.115 108.7 140.425 105.209C140.013 103.018 139.259 100.914 138.195 98.9844V98.9844Z" fill="#1C3857"/>
<path d="M144.5 117.23C144.5 117.23 144.305 125.629 141.475 127.596C138.645 129.564 131.14 116.691 131.14 116.691L130.69 110.149L133.84 108.996L135.115 113.951L133.99 116.374C133.99 116.374 138.44 122.799 139.025 122.085C139.61 121.371 140.025 115.781 140.025 115.781L144.5 117.23Z" fill="#FFBE9D"/>
<path d="M141.855 107.568C139.3 109.329 139.635 113.438 138.855 118.309L145 119.15C145 119.15 146.41 104.432 141.855 107.568Z" fill="#007AFF"/>
<path opacity="0.1" d="M141.45 109.948C141.45 109.948 139.555 113.835 141.45 121.091C141.957 122.848 142.292 124.656 142.45 126.486C143.68 124.534 144.165 121.155 144.355 119.081L144.97 119.166C144.97 119.166 145.495 113.777 144.9 110.218L143.08 109.08L141.45 109.948Z" fill="#130F26"/>
<path d="M122.22 153.929L124.705 182.662L128.045 183.075L129.765 154.421L122.22 153.929Z" fill="#FFBE9D"/>
<path opacity="0.1" d="M122.22 153.929L124.705 182.662L128.045 183.075L129.765 154.421L122.22 153.929Z" fill="#130F26"/>
<path d="M124.69 182.245L127.9 181.144C127.968 181.121 128.041 181.123 128.108 181.149C128.175 181.174 128.232 181.223 128.27 181.287L129.925 184.249C129.963 184.31 129.989 184.379 130 184.451C130.012 184.524 130.009 184.598 129.992 184.669C129.975 184.74 129.945 184.807 129.902 184.865C129.859 184.922 129.806 184.97 129.745 185.005C129.714 185.026 129.68 185.042 129.645 185.053C128.305 185.492 127.09 185.825 125.43 186.401C123.465 187.084 124.04 187.158 121.745 187.988C120.36 188.49 119.59 186.93 120.15 186.618C122.74 185.328 123.25 184.185 123.975 182.805C124.139 182.53 124.394 182.33 124.69 182.245Z" fill="#1C3857"/>
<path d="M130.865 156.134L127.29 187.375L129.92 188.089C133.554 178.721 136.326 169.005 138.2 159.075L130.865 156.134Z" fill="#FFBE9D"/>
<path d="M127.275 186.851L130.505 187.909C130.573 187.931 130.633 187.977 130.674 188.039C130.714 188.102 130.734 188.177 130.73 188.252L130.5 191.653C130.5 191.728 130.486 191.802 130.457 191.87C130.429 191.938 130.387 191.999 130.335 192.049C130.282 192.099 130.22 192.137 130.153 192.16C130.086 192.183 130.015 192.19 129.945 192.182C129.908 192.187 129.871 192.187 129.835 192.182C128.495 191.727 127.335 191.272 125.645 190.743C123.645 190.119 124.095 190.527 121.76 189.823C120.355 189.4 120.575 187.634 121.19 187.739C124.015 188.242 125.045 187.607 126.385 186.909C126.666 186.778 126.981 186.757 127.275 186.851V186.851Z" fill="#1C3857"/>
<path d="M162.66 132.388C162.76 133.155 162.968 133.901 163.275 134.604C165.505 140.088 168.775 153.643 140.555 150.697L138.765 160.836L121.55 155.494C121.55 155.494 120.86 141.41 123.79 138.687C127.4 135.334 146.51 135.466 146.51 135.466L146.41 133.038L162.66 132.388Z" fill="#007AFF"/>
<path opacity="0.1" d="M130.745 141.796C127.335 144.388 126.845 151.38 127.105 157.218L129.73 158.033C129.685 155.505 129.73 149.079 131.23 145.869C133.135 141.786 138.575 137.729 145.505 136.82C145.5 136.793 137 137.037 130.745 141.796Z" fill="#130F26"/>
<path d="M152.04 133.567C154.965 133.684 164.155 134.53 163.65 131.981C162.824 128.1 162.256 124.162 161.95 120.197C161.475 113.111 161.885 106.024 159.69 103.691C157.4 101.264 143.605 104.416 141.855 108.028C139.805 112.259 141.855 117.019 143.495 123.545C144.47 127.448 145.11 131.082 145.72 133.065C146.21 134.683 150.46 133.509 152.04 133.567Z" fill="#1C3857"/>
<path opacity="0.1" d="M163.275 134.604C162.968 133.901 162.76 133.155 162.66 132.388L146.41 133.038L146.505 135.35C147.355 135.593 148.805 135.767 151.085 135.35C154.88 134.625 159.27 136.539 163.475 135.122L163.275 134.604Z" fill="#130F26"/>
<path opacity="0.6" d="M153 129.643C153 129.643 159.885 128.543 162.755 127.104C162.44 125.111 162.125 122.709 161.96 120.229C161.595 114.829 161.745 109.43 160.865 106.135L156.095 107.145C156.095 107.145 155.72 110.678 160.445 122.577L159 126.131L153 129.643Z" fill="#130F26"/>
<path opacity="0.1" d="M157.87 149.719C147.205 150.301 141.03 147.413 141.03 147.413L140.555 150.697C148.68 151.538 154.19 151.02 157.87 149.719Z" fill="#130F26"/>
<path d="M158.735 113.713C158.735 113.713 161.375 120.144 160.925 121.091C160.475 122.038 152.715 127.517 152.715 127.517C152.715 127.517 148.09 124.185 146.86 125.613C146.048 126.576 145.315 127.611 144.67 128.707L145.67 129.183L148.195 128.342C148.195 128.342 151.545 130.579 153.005 129.643C153.005 129.643 165.005 125.253 165.305 121.927C165.605 118.6 162.765 111.349 162.765 111.349L158.735 113.713Z" fill="#FFBE9D"/>
<path d="M158 103.014C156.735 103.073 153.09 104.696 158.88 115.178L164.115 112.502C164.115 112.502 161.5 102.829 158 103.014Z" fill="#007AFF"/>
<path d="M146.795 97.5723C147.545 99.9099 148.825 103.099 150.98 103.66C150.98 103.66 152.07 105.976 147.7 111.704C144.005 109.863 144.785 105.77 144.785 105.77C145.565 105.241 145.945 104.553 144.85 103.316L146.795 97.5723Z" fill="#FFBE9D"/>
<path opacity="0.1" d="M145.94 100.09L144.85 103.316C145.185 103.642 145.418 104.068 145.52 104.538C147.64 103.728 147.52 99.619 147.52 99.619L145.94 100.09Z" fill="#130F26"/>
<path d="M147.435 92.3893C148.435 96.377 148.905 98.0377 147.655 100.687C145.775 104.675 140.925 105.066 138.84 101.47C136.97 98.228 135.68 92.2254 138.84 89.4488C139.529 88.8262 140.358 88.4007 141.246 88.213C142.135 88.0252 143.055 88.0815 143.917 88.3764C144.779 88.6712 145.556 89.1949 146.173 89.8974C146.789 90.5999 147.226 91.4578 147.44 92.3893H147.435Z" fill="#FFBE9D"/>
<path d="M141.59 96.1391C141.715 96.4511 141.66 96.7684 141.47 96.8583C141.28 96.9482 141.025 96.7578 140.9 96.4511C140.775 96.1443 140.835 95.8217 141.02 95.7371C141.205 95.6525 141.46 95.8746 141.59 96.1391Z" fill="#1C3857"/>
<path d="M138.305 97.6463C138.425 97.9583 138.37 98.2757 138.185 98.3603C138 98.4449 137.735 98.2651 137.61 97.9583C137.485 97.6516 137.545 97.329 137.735 97.2444C137.925 97.1597 138.18 97.3396 138.305 97.6463Z" fill="#1C3857"/>
<path d="M137.825 97.2232L137.04 97.3237C137.04 97.3237 137.63 97.7256 137.825 97.2232Z" fill="#1C3857"/>
<path d="M139.545 97.7256C139.566 98.5469 139.48 99.3672 139.29 100.164C139.484 100.208 139.685 100.207 139.879 100.163C140.073 100.118 140.256 100.03 140.415 99.9046L139.545 97.7256Z" fill="#FF5652"/>
<path d="M142.5 100.418C142.369 100.507 142.23 100.583 142.085 100.645C142.074 100.65 142.062 100.653 142.051 100.654C142.039 100.654 142.027 100.652 142.016 100.648C142.004 100.643 141.994 100.637 141.985 100.628C141.977 100.619 141.97 100.609 141.965 100.597C141.96 100.585 141.958 100.572 141.958 100.559C141.958 100.546 141.961 100.533 141.966 100.521C141.971 100.509 141.979 100.499 141.988 100.49C141.997 100.481 142.008 100.475 142.02 100.47C142.386 100.317 142.713 100.074 142.974 99.7616C143.234 99.4491 143.422 99.0758 143.52 98.6723C143.525 98.6465 143.539 98.6237 143.56 98.6088C143.58 98.594 143.605 98.5883 143.63 98.593C143.642 98.5949 143.653 98.5993 143.663 98.606C143.674 98.6126 143.683 98.6214 143.69 98.6317C143.697 98.6421 143.702 98.6538 143.704 98.6662C143.707 98.6787 143.707 98.6915 143.705 98.704C143.623 99.0604 143.474 99.3958 143.267 99.6901C143.06 99.9845 142.799 100.232 142.5 100.418V100.418Z" fill="#1C3857"/>
<path d="M142.635 94.8697C142.603 94.8939 142.564 94.9068 142.525 94.9068C142.486 94.9068 142.447 94.8939 142.415 94.8697C142.161 94.696 141.875 94.58 141.577 94.529C141.278 94.478 140.973 94.4932 140.68 94.5736C140.632 94.5867 140.582 94.5797 140.539 94.554C140.496 94.5284 140.464 94.4861 140.45 94.4361C140.443 94.4118 140.441 94.3862 140.444 94.361C140.446 94.3358 140.453 94.3114 140.465 94.2892C140.477 94.2671 140.492 94.2476 140.511 94.2319C140.53 94.2163 140.552 94.2048 140.575 94.1981V94.1981C140.926 94.0998 141.294 94.083 141.652 94.1487C142.01 94.2144 142.35 94.3612 142.65 94.5789C142.667 94.5965 142.68 94.6176 142.689 94.6407C142.698 94.6638 142.703 94.6887 142.703 94.7137C142.703 94.7388 142.698 94.7636 142.689 94.7867C142.68 94.8099 142.667 94.8309 142.65 94.8486V94.8486C142.646 94.8563 142.641 94.8635 142.635 94.8697V94.8697Z" fill="#1C3857"/>
<path d="M136.67 96.4828C136.641 96.501 136.608 96.5106 136.575 96.5106C136.542 96.5106 136.509 96.501 136.48 96.4828C136.458 96.4711 136.439 96.4549 136.423 96.4351C136.408 96.4153 136.396 96.3923 136.389 96.3676C136.382 96.3429 136.38 96.3169 136.382 96.2912C136.385 96.2656 136.393 96.2408 136.405 96.2184C136.535 95.9355 136.729 95.6909 136.97 95.5064C137.21 95.3218 137.49 95.2031 137.785 95.1606C137.808 95.1569 137.832 95.1583 137.855 95.1646C137.878 95.1709 137.899 95.182 137.918 95.1974C137.937 95.2127 137.952 95.2319 137.964 95.2537C137.975 95.2756 137.983 95.2997 137.985 95.3246C137.989 95.3757 137.974 95.4265 137.943 95.466C137.913 95.5056 137.868 95.5308 137.82 95.5361V95.5361C137.591 95.5818 137.374 95.6835 137.189 95.8332C137.003 95.9828 136.853 96.1763 136.75 96.3982C136.731 96.4338 136.704 96.4631 136.67 96.4828Z" fill="#1C3857"/>
<path d="M141.13 95.7688L140.345 95.864C140.345 95.864 140.92 96.2659 141.13 95.7688Z" fill="#1C3857"/>
<path d="M149.37 95.0496C149.352 95.8301 149.042 96.5714 148.51 97.1122C147.795 97.8209 147.01 97.2602 146.8 96.2924C146.64 95.4198 146.8 94.0024 147.71 93.6481C147.911 93.5755 148.126 93.5577 148.334 93.5963C148.543 93.635 148.74 93.7288 148.905 93.8691C149.071 94.0094 149.2 94.1916 149.282 94.3989C149.363 94.6062 149.393 94.8318 149.37 95.0549V95.0496Z" fill="#FFBE9D"/>
<path d="M138.535 90.4695C138.563 91.1359 138.807 91.7717 139.226 92.2705C139.645 92.7692 140.213 93.1006 140.835 93.2091C143.11 93.6851 143.1 96.2554 144.715 96.3189C146.33 96.3823 145.84 98.3233 147.12 97.9689C148.4 97.6146 147.71 95.6525 148.4 94.9015C149.375 93.8437 147.495 89.2426 145.21 88.2906C142.925 87.3386 138.085 87.3757 138.535 90.4695Z" fill="#1C3857"/>
<path d="M138.84 89.9565C138.84 89.9565 137.045 91.6066 137.43 93.574C137.815 95.5414 136.475 95.864 136.93 97.7468C137.385 99.6296 138.705 99.8623 138.845 101.449C138.985 103.035 140.425 103.422 139.845 104.294C139.265 105.167 138.23 103.184 138.155 101.65C138.08 100.116 136.315 100.031 136.09 98.0059C135.865 95.9803 136.88 95.0284 136.59 93.2461C136.3 91.4638 136.09 88.9199 139.295 89.0786C142.5 89.2372 138.84 89.9565 138.84 89.9565Z" fill="#1C3857"/>
<path d="M138.735 88.5973C138.735 88.5973 136.68 92.4739 138.735 94.05C140.79 95.626 137.855 92.0561 138.735 88.5973Z" fill="#1C3857"/>
<path d="M138.14 89.0204C138.14 89.0204 134.285 89.3854 134.185 92.4422C134.085 95.4991 134.945 90.1998 138.14 89.0204Z" fill="#1C3857"/>
<path d="M132.5 110.297C132.49 110.608 132.538 110.918 132.641 111.21C132.745 111.501 132.902 111.768 133.103 111.996C133.304 112.223 133.545 112.407 133.813 112.535C134.081 112.664 134.371 112.735 134.665 112.746H134.78C134.995 113.803 135.88 113.904 136.935 113.904H137.39C138.61 113.904 139.595 113.539 139.595 112.248V108.144C139.595 107.969 139.529 107.8 139.412 107.675C139.295 107.55 139.136 107.479 138.97 107.478H135.355C135.189 107.479 135.03 107.55 134.913 107.675C134.796 107.8 134.73 107.969 134.73 108.144V108.409H134.665C133.34 108.398 132.5 109.096 132.5 110.297ZM133.3 110.392C133.3 109.609 133.835 109.155 134.71 109.155V112.005C134.327 111.989 133.965 111.813 133.704 111.516C133.443 111.218 133.303 110.824 133.315 110.419L133.3 110.392Z" fill="#007AFF"/>
<path opacity="0.2" d="M132.5 110.297C132.49 110.608 132.538 110.918 132.641 111.21C132.745 111.501 132.902 111.768 133.103 111.996C133.304 112.223 133.545 112.407 133.813 112.535C134.081 112.664 134.371 112.735 134.665 112.746H134.78C134.995 113.803 135.88 113.904 136.935 113.904H137.39C138.61 113.904 139.595 113.539 139.595 112.248V108.144C139.595 107.969 139.529 107.8 139.412 107.675C139.295 107.55 139.136 107.479 138.97 107.478H135.355C135.189 107.479 135.03 107.55 134.913 107.675C134.796 107.8 134.73 107.969 134.73 108.144V108.409H134.665C133.34 108.398 132.5 109.096 132.5 110.297ZM133.3 110.392C133.3 109.609 133.835 109.155 134.71 109.155V112.005C134.327 111.989 133.965 111.813 133.704 111.516C133.443 111.218 133.303 110.824 133.315 110.419L133.3 110.392Z" fill="#130F26"/>
<path opacity="0.1" d="M134.725 112.005V112.259C134.726 112.426 134.743 112.593 134.775 112.756H134.66C134.474 112.757 134.289 112.73 134.11 112.677V111.862C134.302 111.958 134.512 112.007 134.725 112.005Z" fill="#130F26"/>
<path opacity="0.1" d="M134.68 108.398H134.745V109.149C134.544 109.148 134.344 109.177 134.15 109.234V108.441C134.325 108.411 134.502 108.397 134.68 108.398V108.398Z" fill="#130F26"/>
<path opacity="0.1" d="M134.725 112.005V112.259C134.726 112.426 134.743 112.593 134.775 112.756H134.66C134.474 112.757 134.289 112.73 134.11 112.677V111.862C134.302 111.958 134.512 112.007 134.725 112.005Z" fill="#130F26"/>
<path opacity="0.1" d="M134.68 108.398H134.745V109.149C134.544 109.148 134.344 109.177 134.15 109.234V108.441C134.325 108.411 134.502 108.397 134.68 108.398V108.398Z" fill="#130F26"/>
<path d="M131.115 116.691L130.665 110.149L133.815 108.996L135.09 113.957L133.965 116.374L131.115 116.691Z" fill="#FFBE9D"/>
<path d="M104.1 117.765C104.1 117.765 101.245 121.208 100.315 117.188C99.385 113.169 98.5 109.668 98.5 109.668C98.5 109.668 113.94 114.364 104.1 117.765Z" fill="#007AFF"/>
<path opacity="0.3" d="M104.1 117.765C104.1 117.765 101.245 121.208 100.315 117.188C99.385 113.169 98.5 109.668 98.5 109.668C98.5 109.668 113.94 114.364 104.1 117.765Z" fill="#130F26"/>
<path d="M104.5 122.963C104.5 122.963 105.5 114.877 101.305 112.196C101.305 112.196 104.91 115.75 103.805 122.863L104.5 122.963Z" fill="#007AFF"/>
<path opacity="0.5" d="M104.5 122.963C104.5 122.963 105.5 114.877 101.305 112.196C101.305 112.196 104.91 115.75 103.805 122.863L104.5 122.963Z" fill="#F7F7F7"/>
<path d="M106.265 118.177C106.265 118.177 102.965 114.787 106.735 112.888C110.505 110.99 114.555 114.65 114.555 114.65C114.555 114.65 106.525 124.127 106.265 118.177Z" fill="#007AFF"/>
<path d="M104.935 122.583C104.935 122.583 105 114.909 110.5 114.65C110.5 114.65 105.885 115.665 105.435 122.583H104.935Z" fill="#007AFF"/>
<path opacity="0.5" d="M104.935 122.583C104.935 122.583 105 114.909 110.5 114.65C110.5 114.65 105.885 115.665 105.435 122.583H104.935Z" fill="#F7F7F7"/>
<path d="M101.945 119.198C101.945 119.198 104.38 116.025 101.115 115.263C97.85 114.501 95.035 119.198 95.035 119.198C95.035 119.198 103.225 122.842 101.945 119.198Z" fill="#007AFF"/>
<path opacity="0.2" d="M101.945 119.198C101.945 119.198 104.38 116.025 101.115 115.263C97.85 114.501 95.035 119.198 95.035 119.198C95.035 119.198 103.225 122.842 101.945 119.198Z" fill="#F7F7F7"/>
<path d="M103.64 122.583C103.64 122.583 102.29 114.311 96.835 118.119C96.835 118.119 101.56 115.681 102.965 122.583H103.64Z" fill="#007AFF"/>
<path opacity="0.5" d="M103.64 122.583C103.64 122.583 102.29 114.311 96.835 118.119C96.835 118.119 101.56 115.681 102.965 122.583H103.64Z" fill="#F7F7F7"/>
<path d="M109.04 122.033H99.825L100.055 124.011H100.655L101.4 130.484H107.465L108.215 124.011H108.81L109.04 122.033Z" fill="#1C3857"/>
<path opacity="0.4" d="M108.055 125.396L108.205 124.095H100.665L100.815 125.396H108.055Z" fill="#130F26"/>
<path d="M169.465 135.196H167.95H146.79H145.275L140.325 192.975H141.84H142.42H143.935L149.865 138.29H164.875L170.805 192.975H172.32H172.9H174.415L169.465 135.196Z" fill="#1C3857"/>
<path opacity="0.2" d="M169.465 135.196H167.95H146.79H145.275L140.325 192.975H141.84H142.42H143.935L149.865 138.29H164.875L170.805 192.975H172.32H172.9H174.415L169.465 135.196Z" fill="#F7F7F7"/>
<path opacity="0.1" d="M149.865 138.29H166.385L172.32 192.975H174.415L169.465 135.196H146.79L141.84 192.975H143.935L149.865 138.29Z" fill="#F7F7F7"/>
<path d="M112.19 135.196H110.675H89.515H88L83.05 192.975H84.565H85.145H86.66L92.59 138.29H107.6L113.53 192.975H115.045H115.625H117.14L112.19 135.196Z" fill="#1C3857"/>
<path opacity="0.2" d="M112.19 135.196H110.675H89.515H88L83.05 192.975H84.565H85.145H86.66L92.59 138.29H107.6L113.53 192.975H115.045H115.625H117.14L112.19 135.196Z" fill="#F7F7F7"/>
<path opacity="0.1" d="M92.59 138.29H109.11L115.045 192.975H117.14L112.19 135.196H89.515L84.565 192.975H86.66L92.59 138.29Z" fill="#F7F7F7"/>
<path d="M175.93 130.68H81.25V133.033H175.93V130.68Z" fill="#007AFF"/>
<path opacity="0.5" d="M175.93 130.68H81.25V133.033H175.93V130.68Z" fill="#F7F7F7"/>
<path opacity="0.2" d="M175.93 130.68H141.385V133.033H175.93V130.68Z" fill="#130F26"/>
<path d="M174.13 132.906H83.05V135.26H174.13V132.906Z" fill="#007AFF"/>
<path opacity="0.2" d="M174.13 132.906H83.05V135.26H174.13V132.906Z" fill="#F7F7F7"/>
<path opacity="0.2" d="M174.13 132.906H141.385V135.26H174.13V132.906Z" fill="#130F26"/>
<path d="M148.155 129.199H119.445C119.259 129.199 119.081 129.277 118.95 129.416C118.819 129.554 118.745 129.743 118.745 129.939C118.745 130.136 118.819 130.324 118.95 130.463C119.081 130.602 119.259 130.68 119.445 130.68H148.155C148.341 130.68 148.519 130.602 148.65 130.463C148.781 130.324 148.855 130.136 148.855 129.939C148.855 129.743 148.781 129.554 148.65 129.416C148.519 129.277 148.341 129.199 148.155 129.199V129.199Z" fill="#1A2E35"/>
<path opacity="0.3" d="M148.155 129.199H119.445C119.259 129.199 119.081 129.277 118.95 129.416C118.819 129.554 118.745 129.743 118.745 129.939C118.745 130.136 118.819 130.324 118.95 130.463C119.081 130.602 119.259 130.68 119.445 130.68H148.155C148.341 130.68 148.519 130.602 148.65 130.463C148.781 130.324 148.855 130.136 148.855 129.939C148.855 129.743 148.781 129.554 148.65 129.416C148.519 129.277 148.341 129.199 148.155 129.199V129.199Z" fill="#F7F7F7"/>
<path d="M119.825 130.225H131.715C131.768 130.225 131.82 130.211 131.866 130.185C131.913 130.16 131.953 130.122 131.984 130.077C132.014 130.031 132.034 129.979 132.041 129.923C132.048 129.868 132.043 129.812 132.025 129.759L127.235 115.284C127.171 115.089 127.05 114.92 126.891 114.8C126.731 114.681 126.54 114.617 126.345 114.618H114.46C114.407 114.617 114.354 114.63 114.307 114.655C114.26 114.681 114.219 114.718 114.188 114.764C114.157 114.809 114.137 114.862 114.129 114.918C114.122 114.973 114.127 115.03 114.145 115.083L118.94 129.558C119.003 129.754 119.122 129.923 119.281 130.042C119.44 130.162 119.63 130.226 119.825 130.225V130.225Z" fill="#1A2E35"/>
<path opacity="0.5" d="M119.825 130.225H131.715C131.768 130.225 131.82 130.211 131.866 130.185C131.913 130.16 131.953 130.122 131.984 130.077C132.014 130.031 132.034 129.979 132.041 129.923C132.048 129.868 132.043 129.812 132.025 129.759L127.235 115.284C127.171 115.089 127.05 114.92 126.891 114.8C126.731 114.681 126.54 114.617 126.345 114.618H114.46C114.407 114.617 114.354 114.63 114.307 114.655C114.26 114.681 114.219 114.718 114.188 114.764C114.157 114.809 114.137 114.862 114.129 114.918C114.122 114.973 114.127 115.03 114.145 115.083L118.94 129.558C119.003 129.754 119.122 129.923 119.281 130.042C119.44 130.162 119.63 130.226 119.825 130.225V130.225Z" fill="#F7F7F7"/>
<path d="M119.405 130.225H131.29C131.343 130.225 131.396 130.212 131.443 130.187C131.49 130.162 131.531 130.125 131.562 130.079C131.593 130.033 131.613 129.98 131.621 129.925C131.628 129.869 131.623 129.812 131.605 129.759L126.81 115.284C126.747 115.089 126.628 114.92 126.469 114.8C126.31 114.68 126.12 114.617 125.925 114.618H114.035C113.982 114.618 113.93 114.631 113.884 114.657C113.837 114.683 113.797 114.72 113.766 114.766C113.736 114.811 113.716 114.864 113.709 114.919C113.702 114.974 113.707 115.031 113.725 115.083L118.5 129.558C118.565 129.756 118.688 129.927 118.85 130.047C119.013 130.166 119.207 130.229 119.405 130.225V130.225Z" fill="#1A2E35"/>
<path opacity="0.7" d="M119.405 130.225H131.29C131.343 130.225 131.396 130.212 131.443 130.187C131.49 130.162 131.531 130.125 131.562 130.079C131.593 130.033 131.613 129.98 131.621 129.925C131.628 129.869 131.623 129.812 131.605 129.759L126.81 115.284C126.747 115.089 126.628 114.92 126.469 114.8C126.31 114.68 126.12 114.617 125.925 114.618H114.035C113.982 114.618 113.93 114.631 113.884 114.657C113.837 114.683 113.797 114.72 113.766 114.766C113.736 114.811 113.716 114.864 113.709 114.919C113.702 114.974 113.707 115.031 113.725 115.083L118.5 129.558C118.565 129.756 118.688 129.927 118.85 130.047C119.013 130.166 119.207 130.229 119.405 130.225V130.225Z" fill="#F7F7F7"/>
<path d="M123.46 122.419C123.615 123.106 123.38 123.661 122.96 123.661C122.54 123.661 122.04 123.106 121.885 122.419C121.73 121.731 121.97 121.181 122.41 121.181C122.85 121.181 123.31 121.736 123.46 122.419Z" fill="#F7F7F7"/>
<path opacity="0.2" d="M132.835 130.68C132.649 130.68 132.471 130.602 132.34 130.463C132.209 130.324 132.135 130.136 132.135 129.939C132.135 129.743 132.209 129.554 132.34 129.416C132.471 129.277 132.649 129.199 132.835 129.199H148.155C148.341 129.199 148.519 129.277 148.65 129.416C148.781 129.554 148.855 129.743 148.855 129.939C148.855 130.136 148.781 130.324 148.65 130.463C148.519 130.602 148.341 130.68 148.155 130.68H132.835Z" fill="#F7F7F7"/>
</g>
<defs>
<filter id="filter0_d_138_1022" x="0" y="0" width="258" height="203" filterUnits="userSpaceOnUse" color-interpolation-filters="sRGB">
<feFlood flood-opacity="0" result="BackgroundImageFix"/>
<feColorMatrix in="SourceAlpha" type="matrix" values="0 0 0 0 0 0 0 0 0 0 0 0 0 0 0 0 0 0 127 0" result="hardAlpha"/>
<feOffset dy="2"/>
<feGaussianBlur stdDeviation="2"/>
<feComposite in2="hardAlpha" operator="out"/>
<feColorMatrix type="matrix" values="0 0 0 0 0 0 0 0 0 0 0 0 0 0 0 0 0 0 0.25 0"/>
<feBlend mode="normal" in2="BackgroundImageFix" result="effect1_dropShadow_138_1022"/>
<feBlend mode="normal" in="SourceGraphic" in2="effect1_dropShadow_138_1022" result="shape"/>
</filter>
</defs>
</svg>
