<?xml version="1.0" standalone="no"?>
<!DOCTYPE svg PUBLIC "-//W3C//DTD SVG 20010904//EN"
 "http://www.w3.org/TR/2001/REC-SVG-20010904/DTD/svg10.dtd">
<svg version="1.0" xmlns="http://www.w3.org/2000/svg"
 width="1080.000000pt" height="1920.000000pt" viewBox="0 0 1080.000000 1920.000000"
 preserveAspectRatio="xMidYMid meet">

<g transform="translate(0.000000,1920.000000) scale(0.100000,-0.100000)"
fill="#000000" stroke="none">
<path d="M0 9600 l0 -9600 5400 0 5400 0 0 7090 0 7090 -35 0 -35 0 0 -140 0
-140 -50 0 -50 0 0 140 0 140 -129 0 c-128 0 -129 0 -160 29 l-31 29 0 1187 0
1187 29 29 29 29 131 0 131 0 0 165 0 165 50 0 50 0 0 -165 0 -165 35 0 35 0
0 1265 0 1265 -5400 0 -5400 0 0 -9600z m9780 8730 l0 -110 116 0 116 0 34
-34 c34 -34 34 -34 34 -130 l0 -96 165 0 c179 0 207 -6 231 -51 19 -37 21
-733 2 -774 -25 -56 -19 -55 -632 -55 l-566 0 -67 -48 c-38 -26 -89 -62 -114
-80 l-46 -31 -54 79 -54 80 -78 0 c-76 0 -80 1 -113 34 l-34 34 0 366 c0 398
1 410 55 434 18 8 110 12 305 12 l280 0 0 90 c0 154 19 170 200 170 l120 0 0
110 0 110 50 0 50 0 0 -110z m-3599 -1289 l29 -29 0 -382 0 -382 -31 -29 -31
-29 -572 0 -571 0 -115 -80 -114 -81 -18 23 c-10 13 -35 49 -56 80 l-37 58
-72 0 c-40 0 -84 5 -98 12 -35 16 -55 57 -55 110 0 40 4 47 70 108 58 55 70
71 70 97 0 18 5 35 10 38 15 9 11 55 -9 99 l-17 38 -37 -41 c-22 -25 -34 -46
-31 -56 8 -20 -13 -45 -37 -45 -18 0 -19 12 -19 231 l0 231 29 29 29 29 827 0
827 0 29 -29z m3899 -1492 l0 -1391 -34 -34 -34 -34 -116 0 -116 0 0 -100 0
-100 -50 0 -50 0 0 100 0 100 -126 0 -126 0 -34 34 -34 34 0 1391 0 1391 360
0 360 0 0 -1391z m-5685 1111 c-10 -11 -24 -20 -30 -20 -15 0 -25 -32 -25 -84
l0 -39 71 6 c83 7 109 24 109 72 0 19 8 39 20 50 11 10 21 16 23 14 13 -20 22
-69 16 -84 -4 -11 -8 -33 -8 -49 -1 -22 -13 -41 -47 -73 -26 -24 -51 -43 -56
-43 -5 0 -29 -16 -52 -35 -24 -19 -48 -35 -54 -35 -6 0 -12 -5 -14 -12 -3 -9
-118 49 -158 79 -2 2 1 13 8 23 7 11 12 27 12 35 0 8 10 32 23 53 12 20 28 49
35 65 6 15 16 27 22 27 5 0 10 5 10 10 0 14 33 46 67 64 36 19 53 4 28 -24z
m-2204 -977 c9 -7 32 -37 49 -65 18 -29 36 -55 40 -58 14 -11 78 -129 114
-213 48 -112 51 -165 11 -206 -15 -16 -38 -32 -51 -35 -23 -6 -24 -11 -24 -80
l0 -74 -97 -4 c-54 -3 -100 -4 -102 -2 -2 2 14 10 35 18 113 46 138 67 95 81
-31 10 -101 92 -126 150 l-24 53 -70 4 c-57 3 -75 8 -96 28 -88 82 61 138 190
70 44 -23 61 -28 76 -20 33 18 21 45 -41 94 -66 51 -100 97 -100 136 1 38 24
96 55 136 26 33 29 35 38 18 6 -11 18 -25 28 -31z m5669 -458 l0 -165 116 0
116 0 34 -34 34 -34 0 -1177 0 -1177 -34 -34 -34 -34 -116 0 -116 0 0 -140 0
-140 -50 0 -50 0 0 140 0 140 -126 0 -126 0 -34 34 -34 34 0 1177 0 1177 34
34 34 34 126 0 126 0 0 165 0 165 50 0 50 0 0 -165z m940 -140 l0 -85 121 0
c120 0 121 0 150 -29 l29 -29 0 -705 0 -705 -31 -31 -31 -31 -119 0 -119 0 0
-100 0 -100 -50 0 -50 0 0 100 0 100 -129 0 -129 0 -31 31 -31 31 0 705 0 705
29 29 29 29 131 0 131 0 0 85 0 85 50 0 50 0 0 -85z m-3820 -340 l0 -85 121 0
c120 0 121 0 150 -29 l29 -29 0 -705 0 -705 -31 -31 -31 -31 -119 0 -119 0 0
-100 0 -100 -50 0 -50 0 0 100 0 100 -129 0 -129 0 -31 31 -31 31 0 705 0 705
29 29 29 29 131 0 131 0 0 85 0 85 50 0 50 0 0 -85z m-3538 -18 l3 -63 -107
-98 -108 -97 0 160 0 161 104 0 104 0 4 -63z m2248 -2021 c0 -1147 3 -2087 8
-2089 4 -3 41 -7 82 -9 l75 -3 0 240 0 240 48 3 47 3 0 -48 c0 -64 137 -3379
145 -3505 l6 -98 -71 0 -70 0 -1 178 c-1 97 -4 224 -8 282 l-6 105 -120 -3
c-78 -3 -125 -8 -133 -16 -10 -10 -13 -72 -12 -279 l1 -267 -75 0 -75 0 -5 43
c-3 23 -13 191 -22 372 -9 182 -20 334 -24 339 -14 14 -2023 7 -2032 -7 -4 -7
-8 -177 -8 -379 l0 -368 -105 0 -105 0 0 2674 c0 2429 -1 2674 -16 2680 -9 3
-30 6 -47 6 -59 0 -61 5 -53 146 4 71 9 159 13 196 l5 67 37 6 c65 11 62 -1
61 271 l0 249 107 47 c58 26 107 47 109 45 1 -1 5 -249 9 -552 6 -510 8 -551
25 -575 17 -24 18 -53 18 -405 0 -209 4 -452 10 -540 6 -88 18 -290 27 -450
18 -336 43 -773 50 -861 2 -34 -5 -221 -15 -415 -11 -195 -25 -446 -30 -559
-6 -113 -14 -284 -20 -380 -5 -96 -12 -233 -16 -305 l-7 -130 141 3 141 3 -5
-38 c-3 -21 -7 -53 -10 -70 l-5 -33 -119 0 c-65 0 -121 -4 -124 -9 -3 -5 -11
-44 -17 -87 -20 -132 -32 -119 110 -122 112 -2 133 0 229 28 81 22 108 27 114
17 6 -9 179 -13 772 -15 687 -2 766 -1 780 14 14 14 16 77 16 579 0 499 -2
565 -16 579 -14 14 -96 16 -760 16 -561 0 -744 3 -744 12 0 6 5 39 11 74 l11
62 263 7 c144 4 296 5 336 2 87 -6 539 -6 722 0 l127 5 -1 391 c-1 216 -4 475
-8 577 -6 178 -7 184 -28 190 -21 5 -20 9 32 123 93 204 95 301 10 452 -34 59
-41 77 -29 82 12 4 14 58 14 335 l0 330 -196 -4 c-136 -2 -197 -7 -202 -16 -5
-7 -28 22 -60 76 l-52 87 248 3 c161 1 248 -1 250 -8 6 -16 29 -11 34 8 2 9 1
277 -2 595 -6 479 -9 580 -21 591 -12 11 -47 11 -209 0 -107 -7 -213 -15 -235
-17 -34 -3 -51 5 -134 60 -52 34 -99 64 -104 66 -6 2 -8 11 -4 20 6 15 36 17
336 17 181 0 336 3 345 6 14 6 16 66 16 575 l0 569 110 0 110 0 0 -2084z
m2240 1339 l0 -165 116 0 116 0 34 -34 34 -34 0 -1177 0 -1177 -34 -34 -34
-34 -116 0 -116 0 0 -140 0 -140 -50 0 -50 0 0 140 0 140 -126 0 -126 0 -34
34 -34 34 0 1177 0 1177 34 34 34 34 126 0 126 0 0 165 0 165 50 0 50 0 0
-165z m970 -120 l0 -45 119 0 c117 0 119 0 150 -29 l31 -29 0 -215 0 -215 -31
-31 -31 -31 -119 0 -119 0 0 -65 0 -65 -50 0 -50 0 0 65 0 65 -129 0 -129 0
-31 31 -31 31 0 215 0 215 31 29 c31 29 32 29 160 29 l129 0 0 45 0 45 50 0
50 0 0 -45z m-3926 -2957 c-4 -13 -15 -45 -24 -73 l-17 -50 -379 -3 -379 -2 3
75 4 75 399 0 400 0 -7 -22z"/>
<path d="M5373 16799 c-73 -36 -102 -128 -64 -199 27 -52 74 -80 134 -80 49 0
117 30 117 51 0 13 -11 11 -55 -11 -49 -25 -81 -25 -122 0 -50 30 -66 62 -61
121 7 71 38 101 111 107 49 4 57 1 86 -24 46 -41 53 -99 17 -140 l-25 -29 0
30 c0 17 4 50 8 73 9 43 8 44 -17 39 -14 -3 -35 -1 -47 5 -71 32 -136 -92 -77
-146 21 -19 127 -16 159 4 47 30 58 118 21 165 -43 55 -116 69 -185 34z m92
-133 c0 -32 -23 -53 -49 -43 -19 7 -21 48 -4 65 7 7 22 11 33 10 15 -2 20 -11
20 -32z"/>
<path d="M4630 16798 c0 -7 18 -46 40 -86 34 -62 40 -82 40 -133 0 -56 1 -59
25 -59 24 0 25 2 25 65 0 56 6 76 40 145 l40 80 -28 0 c-24 0 -32 -8 -54 -52
l-25 -53 -27 53 c-21 42 -31 52 -51 52 -14 0 -25 -6 -25 -12z"/>
<path d="M5633 16788 c-11 -13 -24 -33 -28 -45 -5 -20 -3 -23 19 -23 15 0 30
8 35 19 15 28 37 32 62 13 20 -17 20 -20 6 -52 -8 -19 -42 -62 -76 -95 -34
-33 -61 -65 -61 -72 0 -10 25 -13 100 -13 l100 0 0 25 c0 23 -3 25 -51 25
l-51 0 37 41 c53 59 69 102 55 145 -14 41 -35 54 -88 54 -27 0 -45 -7 -59 -22z"/>
<path d="M5875 16798 c-2 -7 -10 -44 -18 -81 -17 -77 -9 -90 39 -68 36 16 64
-1 64 -40 0 -41 -38 -59 -74 -35 -24 15 -66 22 -66 10 0 -19 27 -48 57 -60 27
-12 42 -13 69 -4 44 15 64 44 64 95 0 49 -31 85 -74 85 -24 0 -27 3 -24 28 3
25 7 27 51 30 42 3 47 5 47 28 0 23 -3 24 -65 24 -44 0 -67 -4 -70 -12z"/>
<path d="M4944 16731 c-67 -29 -87 -130 -35 -182 25 -24 37 -29 78 -29 47 1
83 17 83 38 0 17 -27 21 -59 9 -35 -13 -81 3 -81 28 0 12 15 15 80 15 l80 0 0
30 c0 62 -87 115 -146 91z m84 -53 c22 -22 13 -28 -43 -28 -30 0 -55 4 -55 8
0 17 25 32 55 32 17 0 36 -5 43 -12z"/>
<path d="M5155 16715 c-14 -13 -25 -31 -25 -40 0 -16 28 -46 71 -77 18 -12 21
-19 13 -28 -9 -9 -17 -9 -34 0 -18 10 -25 9 -39 -5 -15 -15 -15 -17 3 -31 28
-20 89 -18 109 4 31 34 22 69 -28 104 -31 22 -42 35 -35 42 7 7 17 6 31 -2 16
-10 24 -10 35 -1 21 17 17 27 -16 44 -40 21 -57 19 -85 -10z"/>
<path d="M3690 9980 l0 -560 22 -25 c20 -23 29 -25 99 -25 46 0 81 5 85 11 7
12 5 555 -5 904 l-6 230 -50 11 c-27 7 -71 13 -97 13 l-48 1 0 -560z"/>
<path d="M3675 9281 c-3 -6 -13 -269 -21 -585 -13 -458 -14 -579 -4 -591 18
-21 272 -22 289 -1 10 11 9 147 -4 591 -8 318 -18 581 -21 586 -7 12 -231 12
-239 0z"/>
</g>
</svg>
