<svg width="221" height="421" viewBox="0 0 221 421" fill="none" xmlns="http://www.w3.org/2000/svg">
<g filter="url(#filter0_d_443_1136)">
<g filter="url(#filter1_b_443_1136)">
<path d="M106.141 25.5474L71.852 4L69.0854 41.833L39.0723 46.8891L52.3742 76.932L28.565 100.978L58.4942 115.647L27 152.304L82.5829 140.428L102.815 171L124.025 146.689L150.489 158.654L158.733 132.785L194 128.023L175.137 98.8617L188.215 73.4633L167.368 59.5589L176.367 22.843L141.491 30.8094L123.383 7.93911L106.141 25.5474Z" fill="white" fill-opacity="0.3"/>
<path d="M106.141 25.5474L71.852 4L69.0854 41.833L39.0723 46.8891L52.3742 76.932L28.565 100.978L58.4942 115.647L27 152.304L82.5829 140.428L102.815 171L124.025 146.689L150.489 158.654L158.733 132.785L194 128.023L175.137 98.8617L188.215 73.4633L167.368 59.5589L176.367 22.843L141.491 30.8094L123.383 7.93911L106.141 25.5474Z" fill="url(#paint0_linear_443_1136)"/>
<path d="M104.467 28.2109L106.614 29.5603L108.388 27.7483L123.133 12.6908L139.025 32.7621L140.257 34.3181L142.192 33.8761L172.098 27.0448L164.313 58.8101L163.788 60.9522L165.623 62.176L184.132 74.5213L172.34 97.4215L171.506 99.0409L172.496 100.57L188.666 125.569L158.312 129.667L156.34 129.934L155.736 131.83L148.565 154.331L125.321 143.823L123.192 142.86L121.655 144.621L103.159 165.82L85.2062 138.692L84.0227 136.904L81.9256 137.352L35.465 147.279L60.8803 117.697L63.5306 114.612L59.8786 112.822L33.8809 100.08L54.6096 79.1454L56.1194 77.6206L55.2506 75.6585L43.5882 49.3184L69.608 44.935L72.0427 44.5248L72.2228 42.0624L74.6078 9.44714L104.467 28.2109Z" stroke="url(#paint1_linear_443_1136)" stroke-width="6.29152"/>
</g>
<path d="M109.765 109.035L92.4399 91.7135L97.3854 86.761L109.765 99.1405L139.462 69.4395L144.411 74.3885L109.761 109.038L109.765 109.035ZM94.9144 109.035L77.5894 91.7135L82.5384 86.761L99.8634 104.086L94.9179 109.035H94.9144ZM109.765 94.188L104.812 89.239L127.086 66.965L132.039 71.914L109.765 94.1845V94.188Z" fill="url(#paint2_linear_443_1136)"/>
</g>
<path d="M28.7309 366.023L32.6567 357.938H35.9379L30.2192 368.719V375H27.2426V368.719L21.5121 357.938H24.8051L28.7309 366.023ZM35.9724 368.543C35.9724 367.301 36.2185 366.184 36.7107 365.191C37.2029 364.191 37.8943 363.426 38.7849 362.895C39.6756 362.355 40.699 362.086 41.8553 362.086C43.5662 362.086 44.9529 362.637 46.0154 363.738C47.0857 364.84 47.6639 366.301 47.7498 368.121L47.7615 368.789C47.7615 370.039 47.5193 371.156 47.0349 372.141C46.5584 373.125 45.8709 373.887 44.9724 374.426C44.0818 374.965 43.0506 375.234 41.8787 375.234C40.0896 375.234 38.656 374.641 37.5779 373.453C36.5076 372.258 35.9724 370.668 35.9724 368.684V368.543ZM38.8201 368.789C38.8201 370.094 39.0896 371.117 39.6287 371.859C40.1678 372.594 40.9178 372.961 41.8787 372.961C42.8396 372.961 43.5857 372.586 44.117 371.836C44.656 371.086 44.9256 369.988 44.9256 368.543C44.9256 367.262 44.6482 366.246 44.0935 365.496C43.5467 364.746 42.8006 364.371 41.8553 364.371C40.9256 364.371 40.1873 364.742 39.6404 365.484C39.0935 366.219 38.8201 367.32 38.8201 368.789ZM57.6164 373.758C56.7804 374.742 55.5929 375.234 54.0539 375.234C52.6789 375.234 51.6359 374.832 50.925 374.027C50.2218 373.223 49.8703 372.059 49.8703 370.535V362.32H52.7179V370.5C52.7179 372.109 53.3859 372.914 54.7218 372.914C56.1046 372.914 57.0382 372.418 57.5226 371.426V362.32H60.3703V375H57.6867L57.6164 373.758ZM82.5995 375H79.6464V367.418H72.0175V375H69.0526V357.938H72.0175V365.039H79.6464V357.938H82.5995V375ZM93.1809 375C93.0559 374.758 92.9465 374.363 92.8528 373.816C91.9465 374.762 90.8372 375.234 89.5247 375.234C88.2512 375.234 87.2122 374.871 86.4075 374.145C85.6028 373.418 85.2004 372.52 85.2004 371.449C85.2004 370.098 85.7004 369.062 86.7004 368.344C87.7083 367.617 89.1458 367.254 91.0129 367.254H92.759V366.422C92.759 365.766 92.5754 365.242 92.2083 364.852C91.8411 364.453 91.2825 364.254 90.5325 364.254C89.884 364.254 89.3528 364.418 88.9387 364.746C88.5247 365.066 88.3176 365.477 88.3176 365.977H85.47C85.47 365.281 85.7004 364.633 86.1614 364.031C86.6223 363.422 87.2473 362.945 88.0364 362.602C88.8333 362.258 89.72 362.086 90.6965 362.086C92.1809 362.086 93.3645 362.461 94.2473 363.211C95.1301 363.953 95.5833 365 95.6067 366.352V372.07C95.6067 373.211 95.7669 374.121 96.0872 374.801V375H93.1809ZM90.052 372.949C90.6145 372.949 91.1419 372.812 91.634 372.539C92.134 372.266 92.509 371.898 92.759 371.438V369.047H91.2239C90.1692 369.047 89.3762 369.23 88.845 369.598C88.3137 369.965 88.0481 370.484 88.0481 371.156C88.0481 371.703 88.2278 372.141 88.5872 372.469C88.9544 372.789 89.4426 372.949 90.052 372.949ZM102.637 371.391L105.321 362.32H108.262L103.868 375H101.395L96.9655 362.32H99.9186L102.637 371.391ZM115.234 375.234C113.43 375.234 111.965 374.668 110.84 373.535C109.723 372.395 109.164 370.879 109.164 368.988V368.637C109.164 367.371 109.406 366.242 109.891 365.25C110.383 364.25 111.07 363.473 111.953 362.918C112.836 362.363 113.82 362.086 114.906 362.086C116.633 362.086 117.965 362.637 118.902 363.738C119.848 364.84 120.32 366.398 120.32 368.414V369.562H112.035C112.121 370.609 112.469 371.438 113.078 372.047C113.695 372.656 114.469 372.961 115.398 372.961C116.703 372.961 117.766 372.434 118.586 371.379L120.121 372.844C119.613 373.602 118.934 374.191 118.082 374.613C117.238 375.027 116.289 375.234 115.234 375.234ZM114.895 364.371C114.113 364.371 113.48 364.645 112.996 365.191C112.52 365.738 112.215 366.5 112.082 367.477H117.508V367.266C117.445 366.312 117.191 365.594 116.746 365.109C116.301 364.617 115.684 364.371 114.895 364.371ZM139.948 360.328H134.628V375H131.686V360.328H126.413V357.938H139.948V360.328ZM147.553 364.922C147.178 364.859 146.791 364.828 146.393 364.828C145.088 364.828 144.209 365.328 143.756 366.328V375H140.908V362.32H143.627L143.697 363.738C144.385 362.637 145.338 362.086 146.557 362.086C146.963 362.086 147.299 362.141 147.565 362.25L147.553 364.922ZM156.341 375C156.216 374.758 156.107 374.363 156.013 373.816C155.107 374.762 153.998 375.234 152.685 375.234C151.412 375.234 150.373 374.871 149.568 374.145C148.763 373.418 148.361 372.52 148.361 371.449C148.361 370.098 148.861 369.062 149.861 368.344C150.869 367.617 152.306 367.254 154.173 367.254H155.919V366.422C155.919 365.766 155.736 365.242 155.369 364.852C155.001 364.453 154.443 364.254 153.693 364.254C153.044 364.254 152.513 364.418 152.099 364.746C151.685 365.066 151.478 365.477 151.478 365.977H148.63C148.63 365.281 148.861 364.633 149.322 364.031C149.783 363.422 150.408 362.945 151.197 362.602C151.994 362.258 152.88 362.086 153.857 362.086C155.341 362.086 156.525 362.461 157.408 363.211C158.291 363.953 158.744 365 158.767 366.352V372.07C158.767 373.211 158.927 374.121 159.248 374.801V375H156.341ZM153.212 372.949C153.775 372.949 154.302 372.812 154.794 372.539C155.294 372.266 155.669 371.898 155.919 371.438V369.047H154.384C153.33 369.047 152.537 369.23 152.005 369.598C151.474 369.965 151.208 370.484 151.208 371.156C151.208 371.703 151.388 372.141 151.748 372.469C152.115 372.789 152.603 372.949 153.212 372.949ZM160.981 368.566C160.981 366.613 161.434 365.047 162.341 363.867C163.247 362.68 164.462 362.086 165.985 362.086C167.329 362.086 168.415 362.555 169.243 363.492V357H172.091V375H169.513L169.372 373.688C168.52 374.719 167.384 375.234 165.962 375.234C164.477 375.234 163.274 374.637 162.352 373.441C161.438 372.246 160.981 370.621 160.981 368.566ZM163.829 368.812C163.829 370.102 164.075 371.109 164.567 371.836C165.067 372.555 165.774 372.914 166.688 372.914C167.852 372.914 168.704 372.395 169.243 371.355V365.941C168.72 364.926 167.876 364.418 166.712 364.418C165.79 364.418 165.079 364.785 164.579 365.52C164.079 366.246 163.829 367.344 163.829 368.812ZM180.41 375.234C178.606 375.234 177.141 374.668 176.016 373.535C174.899 372.395 174.34 370.879 174.34 368.988V368.637C174.34 367.371 174.582 366.242 175.067 365.25C175.559 364.25 176.246 363.473 177.129 362.918C178.012 362.363 178.996 362.086 180.082 362.086C181.809 362.086 183.141 362.637 184.078 363.738C185.024 364.84 185.496 366.398 185.496 368.414V369.562H177.211C177.297 370.609 177.645 371.438 178.254 372.047C178.871 372.656 179.645 372.961 180.574 372.961C181.879 372.961 182.942 372.434 183.762 371.379L185.297 372.844C184.789 373.602 184.11 374.191 183.258 374.613C182.414 375.027 181.465 375.234 180.41 375.234ZM180.071 364.371C179.289 364.371 178.656 364.645 178.172 365.191C177.696 365.738 177.391 366.5 177.258 367.477H182.684V367.266C182.621 366.312 182.367 365.594 181.922 365.109C181.477 364.617 180.86 364.371 180.071 364.371ZM186.949 368.566C186.949 366.613 187.402 365.047 188.308 363.867C189.214 362.68 190.429 362.086 191.953 362.086C193.296 362.086 194.382 362.555 195.211 363.492V357H198.058V375H195.48L195.339 373.688C194.488 374.719 193.351 375.234 191.929 375.234C190.445 375.234 189.242 374.637 188.32 373.441C187.406 372.246 186.949 370.621 186.949 368.566ZM189.796 368.812C189.796 370.102 190.043 371.109 190.535 371.836C191.035 372.555 191.742 372.914 192.656 372.914C193.82 372.914 194.671 372.395 195.211 371.355V365.941C194.687 364.926 193.843 364.418 192.679 364.418C191.757 364.418 191.046 364.785 190.546 365.52C190.046 366.246 189.796 367.344 189.796 368.812ZM54.2182 406.605C54.2182 405.855 53.9526 405.277 53.4214 404.871C52.8979 404.465 51.9487 404.055 50.5737 403.641C49.1987 403.227 48.1049 402.766 47.2924 402.258C45.7378 401.281 44.9604 400.008 44.9604 398.438C44.9604 397.062 45.519 395.93 46.6362 395.039C47.7612 394.148 49.2182 393.703 51.0073 393.703C52.1948 393.703 53.2534 393.922 54.1831 394.359C55.1128 394.797 55.8432 395.422 56.3745 396.234C56.9057 397.039 57.1714 397.934 57.1714 398.918H54.2182C54.2182 398.027 53.937 397.332 53.3745 396.832C52.8198 396.324 52.0229 396.07 50.9839 396.07C50.0151 396.07 49.2612 396.277 48.7221 396.691C48.1909 397.105 47.9253 397.684 47.9253 398.426C47.9253 399.051 48.2143 399.574 48.7924 399.996C49.3706 400.41 50.3237 400.816 51.6518 401.215C52.9799 401.605 54.0464 402.055 54.851 402.562C55.6557 403.062 56.2456 403.641 56.6206 404.297C56.9956 404.945 57.1831 405.707 57.1831 406.582C57.1831 408.004 56.6362 409.137 55.5424 409.98C54.4565 410.816 52.9799 411.234 51.1128 411.234C49.8784 411.234 48.7417 411.008 47.7026 410.555C46.6714 410.094 45.8667 409.461 45.2885 408.656C44.7182 407.852 44.4331 406.914 44.4331 405.844H47.3979C47.3979 406.812 47.7182 407.562 48.3589 408.094C48.9995 408.625 49.9174 408.891 51.1128 408.891C52.144 408.891 52.9174 408.684 53.4331 408.27C53.9565 407.848 54.2182 407.293 54.2182 406.605ZM66.9559 409.758C66.12 410.742 64.9325 411.234 63.3934 411.234C62.0184 411.234 60.9754 410.832 60.2645 410.027C59.5614 409.223 59.2098 408.059 59.2098 406.535V398.32H62.0575V406.5C62.0575 408.109 62.7254 408.914 64.0614 408.914C65.4442 408.914 66.3778 408.418 66.8621 407.426V398.32H69.7098V411H67.0262L66.9559 409.758ZM77.5842 408.961C78.2951 408.961 78.885 408.754 79.3537 408.34C79.8225 407.926 80.0725 407.414 80.1037 406.805H82.7873C82.7561 407.594 82.51 408.332 82.049 409.02C81.5881 409.699 80.9631 410.238 80.174 410.637C79.385 411.035 78.5334 411.234 77.6193 411.234C75.8459 411.234 74.4397 410.66 73.4006 409.512C72.3615 408.363 71.842 406.777 71.842 404.754V404.461C71.842 402.531 72.3576 400.988 73.3889 399.832C74.4201 398.668 75.8264 398.086 77.6076 398.086C79.1154 398.086 80.342 398.527 81.2873 399.41C82.2404 400.285 82.7404 401.438 82.7873 402.867H80.1037C80.0725 402.141 79.8225 401.543 79.3537 401.074C78.8928 400.605 78.3029 400.371 77.5842 400.371C76.6623 400.371 75.9514 400.707 75.4514 401.379C74.9514 402.043 74.6975 403.055 74.6897 404.414V404.871C74.6897 406.246 74.9357 407.273 75.4279 407.953C75.9279 408.625 76.6467 408.961 77.5842 408.961ZM89.9117 408.961C90.6226 408.961 91.2125 408.754 91.6812 408.34C92.15 407.926 92.4 407.414 92.4312 406.805H95.1148C95.0836 407.594 94.8375 408.332 94.3765 409.02C93.9156 409.699 93.2906 410.238 92.5015 410.637C91.7125 411.035 90.8609 411.234 89.9469 411.234C88.1734 411.234 86.7672 410.66 85.7281 409.512C84.689 408.363 84.1695 406.777 84.1695 404.754V404.461C84.1695 402.531 84.6851 400.988 85.7164 399.832C86.7476 398.668 88.1539 398.086 89.9351 398.086C91.4429 398.086 92.6695 398.527 93.6148 399.41C94.5679 400.285 95.0679 401.438 95.1148 402.867H92.4312C92.4 402.141 92.15 401.543 91.6812 401.074C91.2203 400.605 90.6304 400.371 89.9117 400.371C88.9898 400.371 88.2789 400.707 87.7789 401.379C87.2789 402.043 87.025 403.055 87.0172 404.414V404.871C87.0172 406.246 87.2633 407.273 87.7554 407.953C88.2554 408.625 88.9742 408.961 89.9117 408.961ZM102.614 411.234C100.81 411.234 99.3447 410.668 98.2197 409.535C97.1025 408.395 96.5439 406.879 96.5439 404.988V404.637C96.5439 403.371 96.7861 402.242 97.2705 401.25C97.7626 400.25 98.4501 399.473 99.333 398.918C100.216 398.363 101.2 398.086 102.286 398.086C104.013 398.086 105.345 398.637 106.282 399.738C107.227 400.84 107.7 402.398 107.7 404.414V405.562H99.415C99.5009 406.609 99.8486 407.438 100.458 408.047C101.075 408.656 101.849 408.961 102.778 408.961C104.083 408.961 105.145 408.434 105.966 407.379L107.501 408.844C106.993 409.602 106.313 410.191 105.462 410.613C104.618 411.027 103.669 411.234 102.614 411.234ZM102.274 400.371C101.493 400.371 100.86 400.645 100.376 401.191C99.8994 401.738 99.5947 402.5 99.4619 403.477H104.888V403.266C104.825 402.312 104.571 401.594 104.126 401.109C103.681 400.617 103.063 400.371 102.274 400.371ZM116.793 407.555C116.793 407.047 116.582 406.66 116.16 406.395C115.746 406.129 115.055 405.895 114.086 405.691C113.117 405.488 112.309 405.23 111.66 404.918C110.239 404.23 109.528 403.234 109.528 401.93C109.528 400.836 109.989 399.922 110.91 399.188C111.832 398.453 113.004 398.086 114.426 398.086C115.942 398.086 117.164 398.461 118.094 399.211C119.032 399.961 119.5 400.934 119.5 402.129H116.653C116.653 401.582 116.45 401.129 116.043 400.77C115.637 400.402 115.098 400.219 114.426 400.219C113.801 400.219 113.289 400.363 112.891 400.652C112.5 400.941 112.305 401.328 112.305 401.812C112.305 402.25 112.489 402.59 112.856 402.832C113.223 403.074 113.965 403.32 115.082 403.57C116.2 403.812 117.075 404.105 117.707 404.449C118.348 404.785 118.821 405.191 119.125 405.668C119.438 406.145 119.594 406.723 119.594 407.402C119.594 408.543 119.121 409.469 118.176 410.18C117.231 410.883 115.992 411.234 114.461 411.234C113.422 411.234 112.496 411.047 111.684 410.672C110.871 410.297 110.239 409.781 109.785 409.125C109.332 408.469 109.106 407.762 109.106 407.004H111.871C111.91 407.676 112.164 408.195 112.633 408.562C113.102 408.922 113.723 409.102 114.496 409.102C115.246 409.102 115.817 408.961 116.207 408.68C116.598 408.391 116.793 408.016 116.793 407.555ZM128.957 407.555C128.957 407.047 128.746 406.66 128.324 406.395C127.91 406.129 127.218 405.895 126.25 405.691C125.281 405.488 124.472 405.23 123.824 404.918C122.402 404.23 121.691 403.234 121.691 401.93C121.691 400.836 122.152 399.922 123.074 399.188C123.996 398.453 125.168 398.086 126.59 398.086C128.105 398.086 129.328 398.461 130.258 399.211C131.195 399.961 131.664 400.934 131.664 402.129H128.816C128.816 401.582 128.613 401.129 128.207 400.77C127.8 400.402 127.261 400.219 126.59 400.219C125.965 400.219 125.453 400.363 125.054 400.652C124.664 400.941 124.468 401.328 124.468 401.812C124.468 402.25 124.652 402.59 125.019 402.832C125.386 403.074 126.129 403.32 127.246 403.57C128.363 403.812 129.238 404.105 129.871 404.449C130.511 404.785 130.984 405.191 131.289 405.668C131.601 406.145 131.758 406.723 131.758 407.402C131.758 408.543 131.285 409.469 130.34 410.18C129.394 410.883 128.156 411.234 126.625 411.234C125.586 411.234 124.66 411.047 123.847 410.672C123.035 410.297 122.402 409.781 121.949 409.125C121.496 408.469 121.269 407.762 121.269 407.004H124.035C124.074 407.676 124.328 408.195 124.797 408.562C125.265 408.922 125.886 409.102 126.66 409.102C127.41 409.102 127.98 408.961 128.371 408.68C128.761 408.391 128.957 408.016 128.957 407.555ZM135.015 411V400.43H133.081V398.32H135.015V397.16C135.015 395.754 135.405 394.668 136.187 393.902C136.968 393.137 138.062 392.754 139.468 392.754C139.968 392.754 140.499 392.824 141.062 392.965L140.991 395.191C140.679 395.129 140.315 395.098 139.901 395.098C138.542 395.098 137.862 395.797 137.862 397.195V398.32H140.44V400.43H137.862V411H135.015ZM149.967 409.758C149.131 410.742 147.944 411.234 146.405 411.234C145.03 411.234 143.987 410.832 143.276 410.027C142.573 409.223 142.221 408.059 142.221 406.535V398.32H145.069V406.5C145.069 408.109 145.737 408.914 147.073 408.914C148.455 408.914 149.389 408.418 149.873 407.426V398.32H152.721V411H150.038L149.967 409.758ZM158.416 411H155.568V393H158.416V411ZM164.321 411H161.474V393H164.321V411ZM171.633 406.922L174.211 398.32H177.247L172.208 412.922C171.434 415.055 170.122 416.121 168.27 416.121C167.856 416.121 167.399 416.051 166.899 415.91V413.707L167.438 413.742C168.157 413.742 168.696 413.609 169.055 413.344C169.422 413.086 169.711 412.648 169.922 412.031L170.333 410.941L165.879 398.32H168.95L171.633 406.922Z" fill="#1C3857"/>
<defs>
<filter id="filter0_d_443_1136" x="19" y="0" width="183" height="183" filterUnits="userSpaceOnUse" color-interpolation-filters="sRGB">
<feFlood flood-opacity="0" result="BackgroundImageFix"/>
<feColorMatrix in="SourceAlpha" type="matrix" values="0 0 0 0 0 0 0 0 0 0 0 0 0 0 0 0 0 0 127 0" result="hardAlpha"/>
<feOffset dy="4"/>
<feGaussianBlur stdDeviation="4"/>
<feComposite in2="hardAlpha" operator="out"/>
<feColorMatrix type="matrix" values="0 0 0 0 0.109804 0 0 0 0 0.219608 0 0 0 0 0.341176 0 0 0 0.25 0"/>
<feBlend mode="normal" in2="BackgroundImageFix" result="effect1_dropShadow_443_1136"/>
<feBlend mode="normal" in="SourceGraphic" in2="effect1_dropShadow_443_1136" result="shape"/>
</filter>
<filter id="filter1_b_443_1136" x="14.417" y="-8.58303" width="192.166" height="192.166" filterUnits="userSpaceOnUse" color-interpolation-filters="sRGB">
<feFlood flood-opacity="0" result="BackgroundImageFix"/>
<feGaussianBlur in="BackgroundImage" stdDeviation="6.29152"/>
<feComposite in2="SourceAlpha" operator="in" result="effect1_backgroundBlur_443_1136"/>
<feBlend mode="normal" in="SourceGraphic" in2="effect1_backgroundBlur_443_1136" result="shape"/>
</filter>
<linearGradient id="paint0_linear_443_1136" x1="110.5" y1="4" x2="110.5" y2="171" gradientUnits="userSpaceOnUse">
<stop stop-color="#007AFF" stop-opacity="0.083842"/>
<stop offset="1" stop-color="#007AFF" stop-opacity="0.05"/>
</linearGradient>
<linearGradient id="paint1_linear_443_1136" x1="-8.18133" y1="-8.0314" x2="42.9923" y2="188.453" gradientUnits="userSpaceOnUse">
<stop stop-color="#4FA3FF"/>
<stop offset="1" stop-color="#3B99FF" stop-opacity="0"/>
</linearGradient>
<linearGradient id="paint2_linear_443_1136" x1="35.7245" y1="32.9598" x2="35.3669" y2="153.928" gradientUnits="userSpaceOnUse">
<stop stop-color="#C8F2F0"/>
<stop offset="1" stop-color="#294C7B"/>
</linearGradient>
</defs>
</svg>
